<mxfile host="app.diagrams.net" agent="Mozilla/5.0 (Windows NT 10.0; Win64; x64) AppleWebKit/537.36 (KHTML, like Gecko) Chrome/132.0.0.0 Safari/537.36" version="26.0.11">
  <diagram id="piDafpqhtRUU5qUU-vj8" name="Page-1">
    <mxGraphModel dx="3452" dy="1393" grid="1" gridSize="10" guides="1" tooltips="1" connect="1" arrows="1" fold="1" page="1" pageScale="1" pageWidth="827" pageHeight="1169" math="0" shadow="0">
      <root>
        <mxCell id="0" />
        <mxCell id="1" parent="0" />
        <mxCell id="w6fQHkmV2pakwZ9QLm7J-16" value="" style="rounded=0;whiteSpace=wrap;html=1;" vertex="1" parent="1">
          <mxGeometry y="120" width="1170" height="460" as="geometry" />
        </mxCell>
        <mxCell id="8962rQQDY3VNNf6We3Pp-1" value="" style="strokeWidth=1;shadow=0;dashed=0;align=center;html=1;shape=mxgraph.mockup.containers.browserWindow;rSize=0;strokeColor2=#008cff;strokeColor3=#c4c4c4;mainText=,;recursiveResize=0;strokeColor=#FFFFFF;fontColor=#FFFFFF;fontSize=22;" parent="1" vertex="1">
          <mxGeometry x="10" y="10" width="1150" height="1570" as="geometry" />
        </mxCell>
        <mxCell id="8962rQQDY3VNNf6We3Pp-2" value="Page 1" style="strokeWidth=1;shadow=0;dashed=0;align=center;html=1;shape=mxgraph.mockup.containers.anchor;fontSize=17;fontColor=#666666;align=left;" parent="8962rQQDY3VNNf6We3Pp-1" vertex="1">
          <mxGeometry x="60" y="12" width="110" height="26" as="geometry" />
        </mxCell>
        <mxCell id="8962rQQDY3VNNf6We3Pp-3" value="https://www.example.com" style="strokeWidth=1;shadow=0;dashed=0;align=center;html=1;shape=mxgraph.mockup.containers.anchor;rSize=0;fontSize=17;fontColor=#666666;align=left;" parent="8962rQQDY3VNNf6We3Pp-1" vertex="1">
          <mxGeometry x="130" y="60" width="250" height="26" as="geometry" />
        </mxCell>
        <mxCell id="8962rQQDY3VNNf6We3Pp-14" value="&lt;font style=&quot;font-size: 15px;&quot;&gt;M&#39;inscrire&lt;/font&gt;" style="rounded=1;align=center;strokeColor=none;html=1;fontColor=#ffffff;fontSize=12;fillColor=#008CFF;" parent="8962rQQDY3VNNf6We3Pp-1" vertex="1">
          <mxGeometry x="1030" y="127" width="101" height="33" as="geometry" />
        </mxCell>
        <mxCell id="8962rQQDY3VNNf6We3Pp-16" value="ArmStrong" style="text;html=1;strokeColor=none;fillColor=none;align=center;verticalAlign=middle;whiteSpace=wrap;rounded=0;fontSize=24;fontColor=#0066CC;" parent="8962rQQDY3VNNf6We3Pp-1" vertex="1">
          <mxGeometry x="160" y="145" width="130" height="40" as="geometry" />
        </mxCell>
        <mxCell id="w6fQHkmV2pakwZ9QLm7J-4" value="" style="shape=image;verticalLabelPosition=bottom;labelBackgroundColor=default;verticalAlign=top;aspect=fixed;imageAspect=0;image=data:image/png,iVBORw0KGgoAAAANSUhEUgAAAOEAAADhCAYAAAA+s9J6AAAAAXNSR0IArs4c6QAAIABJREFUeF7svQeYXWd1Lrx2Pf3MmV7Uu2VJLnK3McYYMLYJnUBMcrkXCKRcSIBAbgoljRRCqEn+m9yUP42EAAm5AUww1b0XWba6NJpeTq+7fvd517e/0dEgyZaLNB6drWeeM5rTdvnevdq73qVRZ+ucgc4ZOKtnQDur39758s4Z6JwB6oCwswg6Z+Asn4EOCM/yBeh8fecMdEDYWQOdM3CWz0AHhGf5AnS+vnMGOiDsrIHOGTjLZ6ADwugCCCFwLmwisogKOpFhEBlmeTK/ym05ybrrGIEfeKm4XUqne+bSQ0MFTdOCs3z9Ol+/DM7AOQ9CMTmZrIrWqrlCcVPMMHvm8/ltukZdjusmk4lEWtP1nngike7uzunFQqnhus7UfL7w1KrVK360ev2KQxRLlKkiBAVBQN0tj2i4pWlauAzWRucQztAZOGdBKMTheHXeWt0qlS90mrU3CKFttywzV683uoQILdO0DNM0DMuyjSDwKQyBMz8wTcttNhu1cqkyWyqXjoS6mLVMq2yaRtkyY5OpbGbf4MDgRH/30Cx1d9c1TfPP0LXsfM2L9AyckyAUxWKuVJ27oFatvcMiusp1miuSyXRW0wRVKjUKAo8SiRQ/JpNpEiIgzwsoDH0yDIsSiRi1Wi4Vi3k/Ho97dsz2NNK8erNRq1drU54QT1mG9YRhW7u2n79zL3VTmajb0TSt9SJdJ53dfgHPwDkHQlEqdc/mx19er9T+p0m0I5tM9IaBRwZCQCKampoi27YpFouR7/vU3d1NnueRrutULBbJcRzSNI3/HoYhVatVisdtStgx0kyDvVLHc2uNRqvScJx8q9F8KhDiUDKZ2L1yZM2ugdUD45SxHU0bqL2A17Xz0S+iM3BOgVCIuUxxsvqywuTE/wq84MJsMp6K2SZZukb1ep3BNTExQUNDQ2SaJgMvmUzS3NwcpVIpBhw2gDGXy1Gr2aC+nl4GXuj7hEAQnxGIkJrNJv/E43HXjNk1jahUKZePzhbm9+u6tnvNqnUPr96yYSweHypRLlfruK0vItQ8z7t6zoBQCGFXJ49eVszPfsxrtq62NC1tmwbFTCLbtmh+do7qzQa5LYdGVq4gyzDJtC0yNJ2mZ2cok0qTHwb8fLVeo/7ePvJ8h9KxBAMQVhOWUWjylOL3IPSo3miQ67r8/3g8LpKJRN0TYbFZq89WG80nRdx+fGD1qvtXjWwYiw9m8kQ9AGQnsfM8L/Sl/HHnDAgrcxNbSvNzHwiazTfHTLPXFBr5botBaFo6lfIFOnD4EK1ZuYoS6RSlE0kKNSLbMKlSr5HvuCR0jfbv2UvZ7hz19/QCVBQzTNJJSAsYBAw4uKwMPOFTo9Hg52BVYV1t2yTdNCj0A2oGQb1/1ZryxMzs9Mzc/FPxWPyRtRs33rV2w6bDlBqoaJrWXMqLp7Nvz88ZOCdAWCqVuhtzY7c069XfiGv6eamYTcIPyGnUSRMh6ToxWB588EG69tprOQZEzNd0Hf4dP3BJe3p66OGHH6aLL76YAWjpBlkaka4JEqhSeD4DED/4fKKQKpUKx5iIOdlt1QVZlsU/mmnSbKlM2f4eSqWz9XrLnS8Xy4fdMHwk09X9/a5c94E127dMEnXDOnZqks/Pml9yn7LsQSiE0Mkpr9t9/32fHujruWF89FB6/apV5DpN8loOVUpVju/K1Qrt2rWLrrj6KhocHGTQdeVyVCgUGGBwVQGuqdkZ2rRpk0zYtJqUicfIbTXJaTbJg7UMQgag73nk+x4FrscXPSDB1tCwTAagGbPJME3SbJ1CEhQIGUuGgQg8omIotJmAtN35QvWh4aHhu4fWbxrtGUnmNW2kseRWUWeHntMZOAdAWBs88tjjv1yvVN7Rk00NT4wepsG+bkonk+Q0W9RsOqRrJj21dw+tXLmSARhLJtj6tRyHSqUSxZMJtmKHRo8w+HI93dTX10duvU6JmEEekjC1On8e+cECEPGewI/KhIgVDQlCABBA1E2NTNvghA6AHhKAqDEoRahToOn17t6+uamZ+dFCqfRYNtd117r1Gx/tWz8y2cmuPqd1v6TevKxBKIRIVqeOvOrowX0fH+jtuWhmcowC16G+7ixZhkGF+Txlszk6OjrOYLv2updy3NZwZDmvWCqxOwlQlMtlKlUrtH37dkokEjIeNA3y6mVy6jV+XavRlG5oKEgTQoJRCP4szdBJMwyZ7LGlO4rY0LJtjj150wFAnZhAJwzYTmq6HiVTGd+w7UKlWpuvlEuP6aZ9x6o1a+9ZsXL4KGVXFjUUODvbi/YMLFsQwg116zPbDu7e85vd6dRNlhZmdj+xi1aPDJKhEbUaNQp9Qb4f0lNP7mVwoTSRSCUZcChZ+CJkCzg2Pk7j4+O0+bwttGbNGkqn01yu6O/rocLkGDVrVaqVKxxXIuGiA0+kMQDhggJcALcWWUEAkUsgAGUMdFVGKSdwYC01Tef/A4yWGWMgOp7LFlu3zGoQBHO1Wv2JSqN+93k7tv9XZjA7ls1umX/RrsJzfMeXLQibxck1xZnZd1s6vTNwnZGjhw+wFVw1Mky1SokTMpYVoyd3PcmJk4svvYTLDABCpVplECKZgjhwbHKCwbTz0kv4tQBQrVZjMDcKeWoBhJUqx4WwgngtQIgN7idbPMsiI2Yz6NgamiYDzrbjBDMG4OG7kYHFo0YGg5f3w5SJHV03GdheCPZO2AhJzE7P5R/P9XV/c8Xg6rsGRwYmtNya4jm+pl90h78sQSjm5jL5euEV89OTH1s5NHDR0SOHaHZynEaGBzmbiS1mmZyI8VoeXXXVNbzI7UScpqenqdVqcV0PNb7Dhw5RIpmkiy66iDKZDAMMz8OlnDw6Sn6tSm6jTs16g+NIOIb4LFNHwoUk+JCMQRyYiJMVj/F7wa7hRI0ZO27RAIBwT3Uh38+xIuqPQpZBcAPA58O9haWsNVr1ar0+03KDR7OZrtsG16y5czi3akwb6DByXixoXJYgLB7Zf3G1NPdRz2ndaOqUnDx6lNKJOPV0Zclxm2TqGrNZ7r77brrmymtow/r17EoiPoPbqep8kzPTVK9UacPmTbR161a2SgAOnoebChA65RL5TovrghSEEoBwNUkmWNjyWRbFAED8JONsCREfkm6QoduELiqATP4EMo4Mj4V5DGTDkFbQ8xiUuqGxNTVsm93mVtOvlqq1mYbnPZDN9nxt4+b1D+bWXjSpaZr7YlmM5+p+LjsQiupU/5GDoz/vN2vv7UolRyqlIo2PHqGVw0NkmTrFYhaNjY2xxUNy5uUvu56paoODwzQ9PUn1epOaToPycwUamzhKV1x2JW3atIFc1yfPQw0QPFKi0dExClotalXLFLoOu7IAHpcf4GpGVsyOxzgWRIbVTiYWQIgP0TSDdM1aACEI4hSGC5ZPiJDBqJI7IBUgRtQNaSGDMCTH99hdRc0xCAn7V2kFNOpr9D2d4t+44iU3PKR1dRXO1QX+YjjuZQVCIYQxe3D3lYHb/CO/Vr0iadvGd2+/jV55/cuoOJ+n/oFeJmgj8bJ371665ZZbyDYthF5UrdSoVq/yY76YpyefeJI2bNpAV15+JYUiIPb9NEG+F/Dr8vMFqpVK1CgXKB2PsSUFuwZgRN0RMWPLc6l/YIBdT7ijZjzGIIyh0I86oWFRveYgIoys4DHQMfC0kN1cZV1NUydTQ1worSUsICwssqioQ4aoNYIiIAzySZsJhf5Yudb8es9Q3+0XvuTmIx2ruDQhubxAWJ3qP3p47OeDVv0XuhKxwX1PPM7Wb2RogMGWz+c5ntu7fx+tW7eOtmzaTIQCeRhycR7EbLipk5OTnAE9b9Nmrgty1hJbKPj9KGegiN+oVShstZgxg8I/3NRctouTNyi8w3XsHegnDYmamMXuLhfp47JQDxC2Gs5xllALNW6ZUu4p3Fy4wDgORSpXVhavAbBxf4BLG8I6AtCq3qjptboTHO5fMfzlo5PTP7zhmlc/qvX3SxZ6Z1syZ2BZgfDo3icuc4uFT3alrJfmpyft8SMHaduWzSTCgFuT4HYCYOVKha67/npKxhPkuQ5nTWdmZmh+fp4tGqzlVVddRevWrGVQcpmBiNxWi60oAIhHp9kgQ4SEigIoa+VCkUaGhtkaoo6I2A+PyIIiQ8olChv1QZkx1XVwSFGYB/Ak4TsMEFrKuE8BEZYQFDkFQrU/SOAAzAt1RibKAYREocaMVmp6fmAn06N1x7/bF+JfX/qyl92pda3quKdLBoLwg5bJJoRIP37Pd9+Vs2MfGurtWvWdb/xf2rpxHWUSMe6EYPfQdej++x+kS6+4nHp6+8iyTKavuU1p3WZnZ/kRr7/sssuot7eXRCApm7CA5aJ8DUAIdgzA4vsuoRsDlDUkbnpz3fw7YkO4pVz2QO3PNGS5AuUJy5SFe1g4AzGhzIAyEMGyAccUIAxlNhT+snJJ8cjZ0aicYegWCS1csNYqu8oFf80gO5mi0YkpGl61esoJxEP79h/6t5+89af+vQPEpbPwlw0Im6XSukNPPfqxoVz6Lfmp8dTU4YN04Y7zqVktkS4kQXt0fIwq1Tq96qabqVAskYkmXKdF5VKBn0eyBi7phdt30MDAAFtPWEu4hLB8szMz/BqwY5gZY+jsOrquQ6VCgV+bjMW5DQqfl0omGVBwRwE8lCa4RhiVLQD2TCoRJV8iaxi5xz5bQrRZ2RKEusyQGpasU0pw6uzSAoRICmm6IgfIzKpAwV83KN2Vo4mZGXJ9KrUE3d83MPz5i66/6ocd6tvSAOKyACGU0vITB69vVcqfMTzngru+9x162ZWXUqNSoqRtUamYJ9Ow6Xs/+D5de931NLBiGBRParWa5LeaND83wwwYxIVOo0kvfamkr3Ht0LTYwhXyeWkp8wV2UbHBS01lMzQ+PsYu7MqREYpZNnWlM1TMF5g3qtqY4DYqytoCY0YnyiYTXFtk1xN+LcjeTHWTdUDLtGUBX5f7Y9oxBiaypMq68ncgPYOqB+JPEG4Qx+oa82BnkJQaXEFz4MGmu+af3H/wruuvv+4PezZe/minXersA3F5gDCfzx6ePPpeM3Q/MnXkUN/s0cN0/dWX0/joAerJZqhcLFK5XKHRo+P0yptuplK9SrF4ihr1GrXqNSoW5tnFBBBjpkVr166lVCLJFhAnCCCsFEtRHNhaaOANKeDew91P7aZGrU6D/f1k6gbFYa10g1zH4c58CQwU5qNYEG5pBJa4CXaMBA2AJsEDyppkzJiGxTGfBKFFphVjC23ixzQ52QPsgr0DECJ2ZKacoXGDMehu8XSadNMiX7eo6frkeMH8ngMHf3jLa9/yu6kVm3ZrmiZbPTrbWTkDywOEoj6876FHPunUKm/d+9jDiUt3bOX6XcrUSYQeu2oPPPAgbdt+AQ2uWEkl8EKDkJMyXq1CjXqVkzKI37LZLAMK7ihcUIM0di3rtdpCh7wWgnPqkxv4VGnUaPfu3UzqTsbj5LuyfWnt6jUMLvBRGWBRYy9cU4ALIEQ5n4TH38H/R9yoo5BvMk9Uvg4uJVAIlozFNDfUHgFEgBosH/nZRCarpSJm1BZAyEkgy6R6y6FUtodansdc1GbLnXl8z4E73vGBD/0CUbrUAeJZwR9/6bIAYXXyyNb87NgXhNO64dEH7qULNm+gtG1SuTBH6WSKJSkeeuQR2rBxMw0MjZDDmUhBge9RbXaKW5Fg7ZB84aSIJ+Uq8INNZSoVawVJGX6963DHBfRn4KLi9bCYACTiPVhBNAIzMKIMK9PPdHBGbbItgwLPYaup6G0MQi6JyNpfKillNUIuIQoyTVnmQNZV0uFiTASwLIMKpSK3YqFUksykyUc8aloMZlhSZE7x4wWBlOoItYnDU9PfffmrbvpUenDDfk3TULTsbGf4DCwLEBbG9lwweeTAFx976IFrr73sUqoVZikdM8nSNMrPzXKD7dj4JOVy3bR63SbyQ0FGLEaB49Dc6CEKnSYDUFHClEwFQAWwcZIjakniIrkvZSvwMzA4zACC64rPAO0NoEM3BcAE1xYgBggBVvBP8TxAW69XyTKOWUkJVsm4gevJLitAxEkWSfCWbq0kdIPj3dPXy6QAkM4vvPBCmpiapqGREd63RDZNQYCiv8bZWLin3LMYBAxEPDVXLk83Pf/2V950y+9QpjmqaZs6QOyA8PTPwNyhPVv2PPno5+Ynxl6+erDfMkOXdN8lSxdUzM+T57pUrzVpvlCgvv5BarRcDqAatSqt7M2R8FxemGpj2cJIJwbABCgUb5PdB01yTxFDAoRqAzgP7NsvQRiGDEqADoV/Bb4Q1knT2JJBKtEPvWN8UXRdIO5DrGfF5OcICTy4peyuopsCLU26TNzAWh4+fJBefdMtfAPoHxygnv4+KpeqZCZi3HnRDkK8B/vmBejmD6lQqYLyNjk1PXfnq1/7+o/bvWvBrOnoo57+MnzW71gWlrA8NtbzyGN3/xy1Wu+dOLhv9daNa6g8P0uNSpGKc3MEWcNEPMXlh2wuR7muHs4yBrAg+TlZcNdkLU5pwQBAACLAhvhLgQqvg+XDc6gpDg6NsGVUrurep/bIQr1pshVFRhXuKdzS/v5+6u3p4efZ2voO2iUoAJQiAjf4pO1Aw2vZCiKDys2+UatTFGfuenI31zRh8bJdXbRh00a26LPzBVaNc2CR2aLKpA+sIcCH1yMLC9rboaNj5PrBVNMNfnDz617/W5QJj2raqo7I1LOG1em9cVmAEIe8/+F7z7/vrjs+YoXua3KpWK9o1qkwM0Hke5wwMTRBtVqDa3w93b1MfAY9BZKFoJ1xOSISZFKAA9BQ5Mff20EIYKja4arVa9nigdKGxf/UU08x6ABcABjvBRhhNQE8WEWQAPp6eymZTlCgo5hPHOu1F+JJyHIF9tdDIshxOREERo26YcA6rlu9hu68525m+GzashkJFwZ5Mp3lmBHMGQlC2ToFQKO7Q8W5qHV6vk/lao3K1ebUXLl615vf+tZfo+zK8Y5FPD0wPdtXLxsQgrz9w//7tZ1je3e9323Ub1wz2NtfnJ0mLXApGbM4AYKaH+p5AIKK80wUuSMrqFTQsECVahpep6yjUuLG61RcmO3q5t/BkgEY9+/fzwBsfw0SNErRG4AEOHHioS8zsKKfxZ4SdoKTLKptCRYRWyou9W2gAKA69ZVCOFzWwGc9U7rr3nvYIvb09lMqk6ZEKsMJG34ftG3gxpqyfUrq2cjuDJRpunt6qOm6NDM7Tw1fTBfLtR/e9JY3fzSWXTnWAeKzhdYzf9+yAWEEKvM7//S32/OzE29PaOJNoVNbbYnQQE+B32pRNp2iYj5PtUqZidkADSyQivNUGxIWJywdflR8ByAoEMCicHLD87hoDtcTn6USM/g/9/xF9UEAGq8FeJCcwSOAi97GQrXIlhAsGxaBitgwXLLQNBoaGIyupgQS6pgANH50E1nSJBVLZYqnknTvvffS1S+5hoaGhymT62ahKj4+y2CyAoPQkBaW2xXBzvGkMDFKHW5INF+oUK3lTc+Xq3e++a1v+XXKrhztdF88c0A9m1cuKxCqE/DgN/9tw6P33vWT3dnYrTERbvCatUToOVy4h+DvkUOHad3a1ezqofgtRxOqGpu0QEpvFIsdvwN0nJmMmmsV1xPuIYAFAMLCgdYGsHL3PeCPPsO28gR3PpimFIqKo9kXTbk+MiwcGy5kQMGO0XR2bSUjJurEb8uSwrXM9vRyzROvKVbKfExXXXM1tzdxDREEACR04O5GJAEU/9GqCHto6xq5bosTQGYsTtVmk/LFKpEZmx6dmLrj1v/xvvdRKoU6Yidr+mwQ9gzesyxBiOOevf/7Q//+H//2llwi9t/00N1ua2HcgPASam6+xwV6BpsfUk9PH7ufiqqmpCTQcQFpQ4BIUdXgygKQKt5D7Ib/A3SIH/ED0CrCNb5D6dUAKHgdLCHAhe+MJ2xKZ1OksZxFwO4oAI596e3uoWq5IkHdaHDhH0yeRrXG72cBKCKKZ1LyfUQ0OTnFCZnevgHmqiZTGSmlwUBEVlV2XfAxhgHXKqUGgE5+IMgJQmr5ITloYg61ycNTUz+65XVv/P3UwLo9HYv4DBD1LF6ybEGIc1F9+Ef9X//Wf77bb1Te1Z1IbHCbNUpYBiUsk0EIq6EbFo8/g8WCRVPyFSqxAj4pEilY5BzLRdlRVS+0rTjX5LhLI9KmUV0RACfX6xIJjkPxHWDh4Hm4w/gbW1kRMtPGipvUlckyxxStUdhACq+UCgzY4cEhjhGrlQq7rzaodbpONadJma4sg7tab/DnDQ+toGxvt+SYopUKBHJ0b0TUOJQ2AEL0KSp3HNYQIlKuF5ATCAblVL403XC8H7zhzT/1Mcr2d2LEZwGyp3vLsgYhDn7s7m/suP+uO/+gJ5V6VcwgM5uIUbEwS36zGWU8XU5eAEAAC4CjpOsBPIAGiRXU+QBAZeUUWH1XWkGIQrHQU1Q6UG1JqlbIfYUgZ0c1SACFidjgmcZsnn0BehraqkJNMP8Un4X2KRIB9XTlKAaeaCiYCIAWC8zEAAgL1TJ19/ZIWUXoqZaKNDKygrI93VxvhLSiju+Btk0Ua3K/IVxjMOIiEgDvH0nwccwrNJqdy5NuJ6bGpqbufutb3/Fx6hk61CF9Px2sTu/5ZQ9CUZ0e+NHXv/KFTMx8Q9I0rFwqTpNHj3BZAgt6fjbP5QO4jLB+AAYWp8qUwhKCVwoQgU+qShWc3EBBviHnFYJSBhAimdP+flg/fCaew6YsIiY7CV2ndKaLXD/kv6fSMv7DzQBbqVSg/MwsZVMpdk3RyYFBNiuGJTUNbqUriHxNsBWHU4k2KexXV3c3k7uTmSyD0LBlAgnWEMV70OJUMzBCVs6etsWussmYKNR1mpicJY9o/uj49F1vetvbfy85lNjdkeM/PaCd6tXLHoQTu3549d7HnvhCVzK2k6C+3ZVmndB03OYEDZwxtB2xXEXkOsLqATywYui4xw8WMArunNV0nIUF29fTv9BkywX4CGwKxAAlwI3P4o57tC5FchmJTIYafgi5e0p3ZUUikagKIcp2zHBCN9BnZ6ezfbnutOe24uCiFubmqSuVpnVr1lAjKnV4IIBbFlsuCBejs5CTOYZBqXSaYsnUgsiw5Kei60JmXmENcfNQ9UmTm4Vl6ULVEVuOx4pu03PzVGu4+dGJqfv+x7ve82vUbR3UtCHJ6etsz+kMLGsQQn/0+3d+88NOpfKLXXG7Z+VAL3WlkzQ1dpRy6SQdPXSQR5uVCkUG2pEjR3gBoiMe1hGMGCRD2gEFMOH/qswQs+Js5VQWVGrHSNqa+hsXyaPFDhAu1CEhRJHMBIlsbr67t+dIMp183DaN+2J2PO+5TqpcmL+kXq/vbNWrmxN2fBjlCWRMEcuBD5vEjAxPlj/K1SoNDw9zHRDsGNf3aXhkhBXdyJREBCk8DCobNxxKEKo2K87GagsTpijSuXG8gEWpNMOmfKFELV8Udj2194HXv/FNv9u9fuiRDhCfE/5kPP7cP2LpfsLYgd0bdz/8wGeSlvZK0WrGXnLFpdz8+ui9d9Fwfx81qlXKT03yDAkkVg4ePMgWS9UQFZFbdULAUmJTLiueBwgBNu6gj8R5scjRwYC/wyqxexqzF5g3AKHrukGx5eSHt2w5mMz1/Fcqm7ljaGTo6NbtK2eoZ9ClmYpRmCl0P/bYQ9tajdor/JbzmkwqudFrtMyZ6WlWdutKpyh0XS67VGo1jl27unu42xiZ0t6+Phmj2iYhgcSDaGJxSf6OQBggUWPorMWKjinm07Af6pMIfIolktRsOGTE4pTMZNg1nckXKkeOHH3w9bfe+ps9a3Y8pmlaZ1LUc4DBsgbhUw/dccmuhx/44tb1666cnxqnyy7cQeQ59OTjj9Dm9RtYsnB6fIwzkwAMZBDnC3lezApAqqTABW3bZjU1PAdLiRYkBE42tEAx+BPEaFhFFn+CpEU0+MUy2TVsOC4zdgzTrKxYseJgqrf3AbN78KvnX3z5kysuuGLmRD19Qghr/rHvrrv3vvteR657a0w3tjcbNTNm6NSolEn3A07iwEWeK+R5Vgb4oHY8zjEiLC8sI7NxYgkpNBV1aMANFqzmLQedGmh5QuIn8AgD2lSpBGUYps4FICCYTP72w6Bw38O77n/nL/3GuymRwPzE8nNYh+f0W5c1CI88ds/OycP7/zwdMy8tzkzpm9auJsN3KfBaNH54lNajYF+q0vycjAmRsQQPc9WqVRxfoSShaoYAHCwc3EG04/LvyCQ2IHnIKcZo8pJFQnbXEukm9Q4O0djUBDVcj3oGBvxMNjchTO3+/r7Bf+pfs3bXxqtvOvpMGmqrBx4bePjee9/i14u/UCrMb83GYlo1n6eVAwPRiLcmeYFHxXKJ1qxfQ2bC4uNB/Q8SF6l0liX4dcNk/ig6MbCfwgBxD/zSKEvKUzCkXg1I49KVRruGEqGSglTsbgtj9oFHnnjoVTfe/CcDG7c9qmWznaE0z+J2sqxBmN//8Pn333XnF/u7MtdV87N6X3cXdcVt8lotmp+eog0bNlC93qLRI2NSBiKVpO//4AfU1Z1rdXVlHS8Mw2azhVhJ13XdMnXDMvCo6dy0i7kWacRYrAsjuxxgXQK0C0HOMIq5krnuqmZZ+Ybr7UtmM9/btGXzbZu3rD+oDWyrnc41E0eeHP7nL/3D+9atGnlDYWryvP6uLirPznJZI5FCvbIu51M0azQ4PEDxFKyhxmLDsXSarSH6EzW0RcEamijwy05/bEyzU1xaNdAmimdhIZm6F0QK4QCiwPGaxQcf3b1n9caNf3P1q175H1p6cOZ0jqnz2mUeE9bnjo7sfuDuj/uN+q22Fqa1wCOvXqfuTJpdLswlHFyxmtKZLI2OjtLE9FTl0JHDhXgycSBfKBwIhaikkmnHsk07GYtnk8lkb9KO96SSiZ54LN5lm2ayvG2UAAAgAElEQVSsODVjmoZhWZalGYkY2bF4YMYTgWHGPM22Wqmu3JGnDhyYc0Xw6KWXX/b97eddPkpDQ/PPdqagmDs68nd/+tkPnLdp/WudSmVDdW7OiGFIjdOgGISFbYsOHtxPa9at5u565GUgh2HHkxwPahaEh5EljXGSBq4lJwei+uaC1Eb0N2jWcEMz3NTIAuIRdUqA0CeDKo1m/cDhI2OZ3v6v3vj2Wz+naZm5Drie+RlY1pZQiMnkD/7tO2/JxhO/ogv//EqxoOeSMaqWy7yIYnacyEpSy/Xq+WJxanp25qHRsdG7r37p9T+87iVXT2QyIw0aDgTNWHq1PJ6Ymy0m56bG0rPz8/2V+fwKx3GGert6IGSTI03EkAxBg1QoNEeQVvU0kR8eWbl3xyWXTAydt2KeqL/+bMHXfknF3J6RL/3F336wKxV/bU8iub5aKhiJmEXVaplcz6Hu7i7as+dJtvSxJGJBm2LxpJwGZcnkTCyO+DCOPkIWlWoHIRfvozIKEkAKhKrnkf+P/kd06Ws6JPcR77bGpqanak7w7Te/7Z0fpUwGfNNoTPEzX5Dn4iuXNQhxQUWl0vudb3313ZYh3t6dyaxwm61YcW5OHx4crBXLVSeV65+Zmps7tGff3h9t2rzle6979WuPaCNPPxdeCGESTdnlXfMx3WrqpOc0SoUik7R9CrIh9SHFOOi/UMRnWMS//8s///BAKvH64f7etVMTY6y45rlN7p1EoR/Jow0b15Fp25zlRPFeh0qbHZe6NLCE6FsUsm6owKd+52xvJMOopkQpmQ+cW0ScLqwjuKikU7XW8uuuN3l0cvYHr3n9mz6ZGVmHLv0O8ftp7izLHoQ4/oO7H1w9unfvpdOT49cODQ4lPM91DUHTLcebyNcbs4adGT/vks1Tl156/YsqsTC7+6GN3/n3r3xwzUjfa0rFwipdhJRLp2hq/Cj19eTowIF9XOdEtwb6C5E11W1pGZEpBQgJ8xFhCaOYsB2A7KZi9DcAumggt+zSJ2r6LXZtWw4msOlUrjSQkJoem5r70XUve8Wn+rZsB/H7tGLfc80anhMgZIsoRGzm4ONdkzPzie5cxll7/toaUdkj2ug+Hy7i2Vg4GAm+5/vfuPj+u37wwfM2bbhu7PDBFQBhb1eWDux9igb7e2lmZoprlWABIfHEA2lsi11S7kdMdnECiTOibdKMKk5URPIfAyeDMCSKG8ybNXVIfvjkOiH5gUa9vX3T9z7wyCMvefn1f7xizdAjnQnCJ18h5wwIzwZIzsR3oo548J5vXPa9//rur2zduO5qr9kYrBXylIN0huvS5PhRSibj1NXVxULFPKLNspjQjXphOtfHriSP90bBPnpUoINiQHviph2MCoSYx9FotMgkNBlDUdykmdkC2Dvl8anZx3fsvOSz63ecd1cnc3riFdEB4ZlAygv8HULsjz3wrUeuvPfOH35w28Z1V3r12gBkPTC8FEC0TZ327dtHL7nupeSAYQNtHS5ZJMgTBsUTKZ6bAXAK1P8i5TlFtzvZ7gOEvoZW5IAw0g3BIR5ZHTKAUpxBThDUZwrlfalcz79etPPyr8RWdjr1F5/PDghfYICcqY8HEI88PH7x1/7xn37r8p07Lm2WSz3Ca7GSHJgwB/cfoGQqznxSMIJQyO/q6iY30LmjHl0iSuhKWTumtqEccZJNgVBlTxmIyJoyING9b1DDdSnUTL/uuGOhYd82vH79X6+/+HJI73fU3KLz2gHhmULJGfgeMTaWeHz/g1f/4Nvf/tiF52+5KBuPZafHR6krlWQgHjhwgC0gpBdZkS2VpkYLam/QOZWzFFleH9S2qNNC6bEuystI+UVCG5XU3kH2FEkcNoP8O6QViYWW4fbWHZ9K9eaMGU/cuXLDhj9ds/a8R7VcrngGTsuS/4oOCJf8JTq9HRRiOvX9r/zfG/ft2vWrl1ywfWutVMi4tQr19XZTtVyimSmpgQO5fCiS60aMWTMAHYr6C0BEJ0gkFMyJrUW7oUCIJmAllSHrh0E06g1/R7LHINfzSbPkWO/ZQrFSbzi7123Y+GdbLtv5nU6cuMwZM6e3fJfPq0WxmLv9ti/ffHjvk796yQXbzquXy3ajVKD+vh6qV6o0MT7O5HMIF6PrAmxR7im0ZYsWkjdqEKlq/D0pCKOxbhp4qgCgOCZkrFg2HqhugcYd+7C8nhc48UTyqVQu96X1l13+pUTPCDROF3/F8rkgT3MkHUu4TC+1KI12f/3L//LL02Oj//2Kiy9ajeE4wnUpl85QvVahqYlJ7ohYsXI12bHEgmo4j/bGBGFLDjRVEoknBiFcTiRiQPYG+BAI4lH9ID4MyXUYeGwVdc1iAWPPC/xmKA6lhof+fmjT+q8Or9l+8FwVkuqAcJmCkF3I/PjKz3/6d35/1fDg9Sv7+lfMTE5QKmZTwrRZLCqfz1NXroey2RxL6CulN1g/npWBNijIYZzUHdU4CcN0Npbyl9ZQ/q5ACaU4OdoiaSeJQoNqtTrHjHoyHY6WquOZgYFvrF696u/XrNz0pNbTc861RHVAuIxByOCZPLj6Tz73R5+99PxtL0laen+rVuHpxH3dPSzncfDQIerp6+dkDehtahwcWrnSkNK3rR+LB4+dMmjrnAqEgtuseD8g348kDVxfwki4gJqBIJHK0GylVLDs2MObtm7+zJqNWx7UMkOzy/yyHHd4HRAu86uN8QC77/7uzh/e9s3fvWDzxmtEq5aKaYKSMZNbn5zAo1qjwS5oV3eO7ISU34CLmsv18O+siSOkm4p/il0Di+mJgLv4wWuTCRo8yglXLAvpYeqU4BYo4Qc8iGahHUpI3Vd0eDTcVqNUq+3rGhr85x0X7fz3zLoL4J6eEwTwDgiXOQglGKZT9/7nnS//3je//qmXX335JuE2dPIwtg0dJA5VG1VyXUhZxCmdzXGWFLEbMqCpZIbPkFIAPwZCTBAW5MuZUgugkyA89n+oFjAIozYoCUQMPeWpp2SoxmHMbAy8oNJqjJmZ1H9t3Lbtz1ec/7Inz4U4sQPCcwCEDMTp6YGvfuWvf0M0qm8a7utZYWkhmTqU1jSeUMVqcFDkjicpnc2QRiZLdSBmPF6GXyoMqII+QKgUvQE2PcqWKiC2g5Cbgn0JQAVCdGmgFxIkcCsZp1KjRoVyZSbT13f72o2bv7h2545dy11MqgPCcwSEDMSZfev/7v/85Wd604nr+7q7MjZyLpDc14mVtyHo5AU+mRg4YydYozSVyrB0hxENJsU4NqVRyrKJLN5/cksIAriyhItBKIEYkA+KHVzZaGpUyw/AtMl7Id2/9cIL/3jDpi0PaT0blm3CpgPCcwmE4nB8z/cfu+6RB+/5vVTMumTdqhESjsNAYJGqgFXgFiwikjNQ8GZLaFgL+qQShLIRGGrhKv47kSU8NQh9arpNsmMmx5LQ9PG9UGZkdRT5w7IwjIdWrjvv81suufgOrWtVYTlerg4Il+NVPcUxiUKh6we3/8vPF6anfyFuaKtW9HRzthRZUQgcoy7IFgo1PcskG+oDukaGDkkMqanKcy2imRbo+W2PARfHhJDsX2wJVUyIaLLerLDIFMgDrKkahOS5sJ4QzrKo4fpV39Cf6B1c9YUtF533w9TqnZPL7ZJ1QLjcrugzOJ75ww+e9/h9D35i6ujhm1fkshnIJ7IWKRFBUwZlCWyY4KuACVEonurEGjURGJEtjWQwlPTF4pgQIGQ17xMkZgDChlsjP3DIEBqlYnGyNYM8WOOmRx7kHJNZKjdb9VLD2T+wZu1fX3DFVV9NrT5vWQGxA8JnsGiX20vQcXHPtx6+yW9WPjJ3cP+VK/r7NRC7W826nE4VTzB9jcdzo0SBRIyJHkSTZ1oAhDxujWUf5RJS1lBZQvX/E1nCY5KJPjXDBtkITj2XmpUaCcejpB2jmG4zEcD1QhK2TY0gbFY8/2B2aPivtl2846u9Gy8fWy7XpQPC5XIlT/M4ajOHBg/sfvTW0tjoBwpTk6tWrFhBwveouytHPk8pRgkjI7VXIYmI+YYAoWmzojdUvrluGJFLF7ryxTHlNuyS6sxndTa4uagXomQhwKsJqOZVKQx90nyPhOsTuT5pcEdBc8NnGyY5IZEej5NIJFs1PzgQxqy/3bh5y5c3Xn7jsgBiB4SnuXiX08vHn7jvwn2P3PcncQqvLszn42vXrGYNU6hxg94GRg27qREI2fqhIx9zDiOOKTfyRi4pHlUhH+eJEzdRTKhAyArfcE8jEMIdRbURoBOYyei6x0CIkodpU8vzyYP0om1TKxSeoxv7egeGPze4cv1tGy+/7kUPxA4IlxOqTvNYRD6fffi+77xTNKvvm56cWr9yaJAa9RolLYsyiTiVikWKxzEMBgrdOpGF4TIQDTZI4G+awaULBTg8tmvVsJsaWb6TgbDlt9gSon4oUNj3XAajFmAWRsjZWaiXQ4I/NE3yIMMfhp5m2Xv0WPrvd1zxki+PnL9z9DQPfUm9vAPCJXU5zvzO5Pc/uu2JB+/+w5hp3VAp5ONp26ZUzOJYT4Q+vE5p6aA/YwB8Uj4fwBQ8AEcOPz2ZO7oglRhZv+PdUUGu7zAI2WJ6Lo8yDwFEDEKNlN5AIvDhmmry+2X5InCbYXjI16x/e9kNN/7v7hcxEDsgPPPrfkl9oxCz6Udv/+5PBQ3nw4XZmU0AoUkhxTSDUsk4+U5rAWAAX6hrctYGpL11jUx0RpwChBCOUmLBnORpc0fxdyR/OEb0MZTHpcCXQOSO/jDgQTcycysH7mCGhmFYTBx3gsAtlGtHErnuL1102ZV/teJF6pp2QLikIHF2dqY19uSme++94w9SlvlKr1rNkOtRFvIXtkWeewyEmLGBJA1+MGsD3NJ4IsO0tXYF7+Pc02gsN2vPgFOqZllE/NLQl/GhH/oMQv4J3IhfGvDYOqbJIbHjg2Ej404AEcrhLgmnUG0cyfUN/NXOK6/+Uu+FV46fnbP47L+1A8Jnf+6WzTuFGEs88aMHf8Kr1X8zbDR2CLdFZhBQHM290QphZowO2Xs5gQry99x3mMrK7GlkDRcnZjA4h2PDE7ijaL9ABpTZOqHHU6XcwCWPQeiRACXO8yn0fH6EzKnB03YEt0OBWID9iGcz3myxus9MpL50xUuv+7veHS+u8kUHhMsGSs/tQJqFg6vv++7tn+hNpd5o+l5XfnqC4JomIZ0P7SaeOIXJU5EVjGbeJ9Kyy2JBoS36nfVL4URGJIATlSikQJQE4mIQIg5ESxSYNM1GnXzHJUtDXdJA/9SCMjgUwNO5bnJDrTU+O38k3t37N9e+6uZ/7Nty0cRzOyNn7t0dEJ65c72kv0kIYT91122vKM9P/bEdelvJrVPYbFAG3fXwIhHbyVGiPAAGqt0YCGNjyAxmGYJfqmqHGJCqLGDkdp7s4HUhR4nD8jE5wHP5kaltwueSCSxl4Mk4EbQ2LZoRCaNsG4LKlQols91UbbleIzT22Zncn1993cu/OrDt8uklfdKjneuA8MVwlc7QPk7seWDL6J4nPmWGzo2G17Qx1RhxIUScIOSL4aKBgAuI8ahyFkUM7Bntx0Go2p3aB8ic7DAkgwYxoXQ9+TGiuTmthhxIupCskTqosr1KkIVWqtCnQqVOsUSWYtlco1Bv7Ulkuj+78/qX3za8aeeSH9PWAeEZWuAvhq+pTE727X34++/xGqVfjuthvx44BBYpGpZIIGeK3wwGIUuMngKE7e7p0x27soSq1QmP/LsQ1A5Clt6IYksFQiOUTcMtJ6BUVzfNl2tkp9P1hq8/KqzYF99863u+tdR1azogfLoVcg49DymMPfd86yWzRw5+tjtpXqR5Lumhx9EdCzohGYNSgUBiRhK+TS7an9gSKov1dKcQIII147JENJZbsWpcp8l/hyVEkzFAqCQ3YKF13A1CIQfc2DbNzReoq7ePHEHFw+OzD6/ZvPEPbvxv77tT0zQpdrMEtw4Il+BFOZu7VNpz37pHH37okz1p6/Wa78SF53BMiA3tRbCGgkyOEbGpYv7imBDuKLaFxMxJDkrxSJGEYeCprouopIESCUDoeS6DUChpDClrwzEiOj18L+BYsm+gn+bm56nW8iid65k5Ojn3vRt+4nW/v/6qVzy1VDVrOiA8myt+CX63mJ5OPXD/7e/Qvdqvx3SxInTlPAsZ28ESovgukzRIziC9qQDI3FFDNvuqmPB0QKjqiMeACaEoh0Houg6DMPQjixmBkGuHAZFlGTwUNZNNU7laZb0cYVhkJlJH73ns8Ts//Buf+Hh81bYDS/CUR7ezpbhnnX06a2fg8D3fvuLowSf/tCedusRz6mSwVKHc5Ih7nV1SbO2F+vbsqLKE3I94iu1YQ7CMARe3QoFBg1gQIETXP7KkylXl8obQyWk4lEoleEpxtVykrq4MZXJdNDY1TdnefnFkanq06ur/+Uu/8esf1brXlc7aiT3JF3cs4VK7IktgfwoHH1x93w++++kV/X2v9pq1NCwhu37Iki70D0prCH2Z9uGi7UDkcdvPAIQSiNLa8lCZtv7EE4FQJW0g+K0TsrdElVKB+nJZgjIGWDelUoly/b1Uw2i4VM6bLFb2WJmev37zf3vnP2jZkSU1kbkDwiWw6JfaLqC74kf/9a/v0fzmB1MxazhwHW5tAqicRlNK5JsmVNFYnxSMmXYXtF2NDc3B7aBaXLJQo9eUVuliS8iqwaxHJTOmsITgk7JV9DHKxpJEbxGQHvpEwuMfqIEHmiArkaD5coNiXT31faPTT+y89rqPXveG/37HUkrUdEC41BCwBPZHCKE99I0vv2xu8vBnBvu6LwycFiUgbaEJatVljyFAWG3UuclXRKJPCnztIARg1dYOwMVglLL5P24J0ckhQRwugBAAZEEqL2A9VMSohvBJhB5ncwm/I7Gjh1RvedQ7vIL2HR6jwTUb5p86ePSOm974ho+fd9XNSyZR0wHhElj0S3EXxu+7ffPdd//os5vXr7nBbzVsCx0TBFn7huRuGgb3+IG7qUC42BriuJ4OhKoh+GSWUIEQw9mYRcPxoQQhu6WIC6WpZGuICcUKhCCbNhyfYqk0GfEMTc7nSY+lJg8enfz2r3z4o7+VWH/+kuhD7IBwKSJgCexT/ciTw1/78j98fOumDW/TfbfLILh7AXlOi8nUHPuZBrmYhnYKS6hiwpNZwdMBISdkOFMqyxVKtU1yUOVYNuwjAC1HtQmWcdQsm1LpHM1XqmQnM+KpvQdH127Z8rk3vuNdf7cUZBQ7IFwCC34p7gJKFV/+l//z8ysH+z8QN2nEQioSDbjo+3NRwA/JsuPUwmyJU4BQlShO5YpKd1PGfj8mmRh4kXyGbIUCCJEt5XJFKB8ZdNzF7/NEKE7uQI4/GnIKiQwoZ2DwzczcPOLY5iOP73r8NW+59SM7br713rMttd8B4VJEwBLZp+/841/cGDSqn+nvTm+N6UR+q858TSx28j22MD4K9yBUR9L47fGgck9PFROqxEx7dvRY2UJQGIGQZ9KwxQOPVPFLfXLcOmdWUStRcSUzahTLB9Q3x2PRKjQiI6nj+yFk/+cPzea//d5f++RHc2vPO3w2T3kHhGfz7C/x7979vf/YtvvRh//PupXDl6Vs3XDqFbIg8IROP9fhxt5Qt/nxZNlR5W62Z0jbfwegnq5EIUsg8mShuRfvkfxSj0EoOBEjQSp/ZM8hHlnUGPsZhpROJLl0EY/FWNLx3t37D62/8sZPvOQ1b/zWyMjZK1t0QLjEgXA2d2/ywTtWf/vb//n57ZvWvzwdMzLNaoliUOU2LXJbDsvlkxU7pTt6LOY7vv6njguW6VTuKOqEEuBR4zC3PUmXFO5oy6ktWEAFQH6EChzna2SN0zZMarbqlE1nyGvJ7/TMeO0/H3jqvvd88Nf+1/bLr3n8bLmlHRCezVW+xL9blMs9f/W53/3DKy7a/prQqQ859Rp1pVPUaklgoEoXSyfZzVtcsFfgQ0woCdqSeK2SKYr1AlqaBE80Li2Sv1DPW6bsN5RTgFEPVNZOvgdJGvVe9flK7VsKRUnwK8aP/K9shwo0m+ZqzsyhiZnbPv5Hf/DrWv/ZUfbugHCJA+Fs7p4Qc5m//YPPfPji8zf9TLOUXxs3DUrYMTnNFwrZaKpNxFnu4lTu6KlACII2wwKKa5E4sAIg3mca0STgE4JQsEhx++cjhpRZ1Ai0PwZCCUC2vppOjqvRfKV2oHvFyk+9/pff949nYwxbB4Rnc5Uv8e9Gt/2Xv/DJn14/0v/h/OTYeatHhhdkJQwrAaIZmTH7lCBUgFKWsN0asku4AKITg9CIBs6c2BIeAyGAKOuG8nMUCEE5b99Quji2Ibo1qeEFlXsf333Xh3/vkx/s23L1njN9WTogPNNn/EX2fbf9/Z9dmyDvUzNHR6/YecE2clotimMojJVgS8hjzCJLeKJiveJ5nswdVSA8kTuKUwWn9+TuqCAvcmcXQL7YEkalD3XaF4OQAp2agaBD0zNH156/49NveN8v/o2m9VfP5GXqgPBMnu0X4Xc99u0vrxs7tP+zpZmpW66+7DIDQ2OQZRSaVOKG4tmp3FGV/TwZCNG0eyp3FAX4U4HQd1VMGTFqxPGWkCLaW+SVLsSDHCMKnfyWT2TYRMlk/f49ex/8mV98//vX7bxhl6aCyTNwzTogPAMn+cX8FdOP3TVw+7f/87epWX/bFZfu7ApaLmXTaXK8gHv2eB7MKWJCjh+jLGV7Uqa9c/5UiRm4l6cCYQC17vbET3h8TCgCj7//RCDUQp2EE4BFQ65p0kN79s6s2rLtc2//yIf+VNN6K2fqunVAeKbO9Iv0e8Tcnsyffe6LH+pNJX7uwvO3DBohceG7Wq1TNtdFPpM3ZWKmvbu+vTRxqsQMLOHJQIhThhLFMwHh4phQye3j/e1be4yohzppTkhmLE51P6D5luOMlcr3/eQ7/scvb7r65kfO1CXrgPBMnekX6fcIIfRP/8rPvXXdcN/vbF6/dgMGinZlslQolKi7t4dn3Z/KErLXd4oShQLhybKjzwSE7ZZWJWaeGQiJdCfEXAsykmlyDIP2jk9Op4dXfvE9H/von2pa9xlpAO6A8EUKjjO52z/6yv9/wejex/90545tl2NAGVS2LcMm07aOc0eVNWxXWmunoClAKmYL/g81NWUJldCTih8ZvFDiZhDL2FAJPS30IYJCF4FcsWjU5+D1qgSimoXRWSHrjdJFHerqobGxCYqluyiwbZosV9zZWuPO977/w+/v3Xb57jNxnjsgPBNn+UX+HRP3/3DV177yD3/4qpdde2Or3ujJppLcx4fJTEjMoP69GIDq/+0gPNHviy2hEnpaqBW2xYQMvKjgv0BRw3DRZwBCNcabtfTZdEog9iYzVCwWyUplKDRsmiqWqOT6Y9uvuOZ/Xf/2N/+Hpg3UXujL1wHhC32Gn+fPh3vII4pkGx1WVPBCZ/JEabT7T377Ex965XXXvt1tNNb29fayNCFvUXYUvy4mb3NCRIumMkVuabsVxPPtMeGJLKEqUajOegVCBVJ0/beDENOdZL0wGkTqSoqassKsoRrtC0AYui6FoZAKAYZNxVqDGqTXCi3nGx/57d/6kNa35QWX0++A8HkGyfP5cdABpWIxTUGQcsjNBJ6fDihIul4rFnrCFGHgJ5KJumZQRTdjxWRfuk7UXdM0TfYFPU+bEML60qc/estIb89v59KpHZl0SoKQNUflgJiTWcITcUfbgdhOW2vXHVWvQTe/TLpI0jZamdrFgb2WTOwsUNYw3xAUuUg8GKBUoOObQlR35N9B+g58blC2MAbciJEjNGoJnfYcPfrUu9/3/ncPXPTyBzRNkx/yAm0dEL5AJ/bZfixbumIx4/h+vyuag5VC8QpNBOeFfjgSBE5X6AepwA+sMPQNIYQvNKoLjYq6rk+ZtvVoKpl7IpXJTmYyffOUyZSfL63Np27/2uYnHn3w97Zu2HCzrlGSx5PZkXTFKUCouKMKCIst4bHEiwSXEv9tB6EEWDSfImpjUuUOBUL1PnRWsJWMLKECIQMOMWWbO8pAjGhxBvNfDTKtBFVbPk2VK8V12y/4u5vf/jO/o2VX5p/t9Xwm7+uA8JmcpTPwGlibxvx8v+83VzjN2uXNRus633U3aSIY1CnMUCjiJAKpPw/qNFwpXVAorYDvBr4ThqIiiOY1wzyk6dbDmmXcvW7jeQfiudqUpm065pc9i+MRo493f/mf/+k9m9et/SWNxLCp6WTFY+yCLo4Jldxhu9ra4nhw4f9RzNeeHV1QU+P+JEnsBgi5hcnDMFH5O6hpinGj5h4ChO3uqIbsLbZIxa09MSM0QYalo7dQatUEGtlWkor1BgWmTXNN5/FXvvFN77/4lW+56/m6mZ3o1L/oQCiEiBUKhZhlWbau60azMG5omqY5jqs7rqdrjqM1Gw3huXpgUsOvFR3Pte0wnUqJXC5HXdms6E4kPBoedl/IE/tM1zn4mc1CYdBx6uucevWmVsu51ndaa8LA76MwjMdjlpTc5XqcWFDDVmCs1KpSasIySdeBUYGZ7o7j+2XPp4mZ/PzDq1av+dqm1Wt3x4fXjT9bVxXiT9/760+/mnzvj3q7c9txEwBvlDvnT2IJcQ7Qt3ey5Iz0E2XWU4HwRIkZgFDJ4AOEStoCIIQ7q6b/Ku5ou+yFrriiEQjb3VGAMNmV4kbfuBUn4YVkGnFyfEG+adF0pVYKs13/etPr3vAHay649tAzvaan+7olDUIhRLzRmO/2fZEKHS/TajRzjuPmWm6rJ3SDntB3+9Kmnrb0IIk1QSK0iHSTc9bo9CRqZrLZeuAF5VarUau16s1GvRbUao2m22xVW2EwYaRzRxM9Xa11vbkgObTF7+npaZwpcAohckef2nWpFno3izC8VoThWhJhL0Y74I4NF4onU2PmAtsb+XsU5PADBmryWsYrEDuh4RhxANEAACAASURBVBazIvhvrI+dL5RKY/Vm846urtxX16zdvmdw/fqZ010oeP2D3/znDUee3PXxDWtXv14EYcYyDQYZ7xcDEa1DGKONAzB4ZFo7CHGD4HKCGpcWlQraQbjYHQXIlCVU4r8AobKE6PA/Zi2V1fRYlVtJZsjzJt3R9sQMuK9WKs6WM5NOs6dqahZZsSRVHZdCy6bxQmmf1dXzuRtuee2/rNx6xQvili4pEOJuS8Vi1vHmeyul5grXdbY7rnshkRjUhZEjLewioSVJCxOa0GO6CG2TAgyTVdnCqG1MqosQkR8BCoD0Ed4jm4iknBCiRRSUWq47VWnUCoV8sdxoNvO2bR3q6RvYNdI7PE8jmcbIyKWNZ7NgT/UetAiVJusbG9XaK4XXeIMugk1E1Iv3qL43hg8WTuR6KvkH2TEuWEuFvSwV+0R9dljgOI0AI15XqpQJHoDnBtPTszNPxOKJ/9h0/tZv9W+IH9W0bcfTSZ7mQMXsbPr3f/dX33LTK1/xq6HX3JJAgy9k7yOXT5KwoTSBzCQGyISstoarAYCC4oZYUk325d8Dnd1Kae3kfML2xAuyp6rFiZ9XbikupQgIPY6wdgslC3VuMNE0iv9OljTC5GE7npSlFngTRhuxAOGpIPI8rZGvt+7YdvElv3X5W957n6apoPL5WxVLAoRC7LZbUzRUqlQ3uI3WtSIMduhCX2uYRn8QBDkiimuCcMvFzXVhw86rRSunIshpCbjYcrosZghhoKX8eyB4goKUbmf3RIR+0Grpuu7out7yQmo2HadardaPlKq1vfWWu1uPxfauHVo32r9tbW1gYNtzqhkh6dKanl5drsxf4Xn+T+sU7tRCd1gOnpbbAscx+mUhplGq1ItAeNzia2t4lWCU0oRY1Hh0HKd+6PDhiUI+f8/WLef97UXX3PLI6Y4Ne/DbXznvwN49P7tu5fA7g2Y9151ISqUzWG41KNQwpJtq6ORDB5S74iUI2+UukKvU3OimwrfIKN4LXCmeFvrsKsL6Q+hXAVDNL9QCnyC5cZx1i46bvQNYvkWUOuyXKqWgGdmKozShyxkaRsg3DOgohj4Eo4iajYB0Kz5RqLT+8taf/8UvaKu2FZ4/+EXX/Pn+wNP5PDE3l6lUxoeann++12rc7LreJb7vr9I0rcvU9BhOjJr42g4+Xqxq0UbiI9xxjYvMc/MioR+Vkua/Q8JdFmj5RAOEWkgxS7px7PLAgvBATKoHpFUFmaWW68+OT0w+PF8oPpZMZZ/YdP75E1sv6c2frhWpTO7tq1YaWzw3eCNR+GotFOsR86ETqJ3PeLogVOdbHUM7KNVCROIB0oOpVIqazSZNTEzMFIrFRwPd+uYbfurt/3Q6svDi8OH4X/7N565fs3rk4yMD/ZeJZkuHTD7fAqPFbEYK3ZppkOc70pFGqeEEiyNsRcX2NhDKTKiMg7HvQGQQSPbMMX0ZgERawnYQLv4KBUJeS9EPzgUDUTdJt+wFEOqmBC3vK74/JKpXW6SZCefodP6O9edf8Fsve+cvwRo+ryWLs2IJhRhL5I801jjV4lWlcvFm0zTOj9nWiG3bOZXSVgG6WpQnA+Gxk37CS3xcWro9RpDJAnl3XbBCGi4MlMNM0g2L3aaW6zmGFS95vl+cmZk7OjU1+0RAwX39/cMP5NZsmb3wwgsh93XSTezfH5vw62sK+fyrhO+/Lp1OXZhKpfoBerha0Gw5FQipbf94nxdZQlUMP5lFBOiSSTBcNAagylgWCoX80YnJA+Oz+R/84sc/9ilNyz7jeOeef/7LrXsP7P7v52/Y8C47FL0GT2OSk5j4+kV6MEjYGKb0RNCUi5ugujGwlRJEfjNqRYp0Y6R+jMvq90jWuA6ej4aG+lJbRllCWEq31ZAUNHUzVopQappvNMJbqYYrCX+2fEgfGCZfc9wwDCuKbbGf3JlPVC03WC6x1AzGZ8r1f/zZn/+fn0udf+nU6Ribp3vtGQdhY35sRb1S2NksV97WbLUuj9nmsK7rKaS81TARvntFmML45HbL1+62KV3JH4PfgjlRI72OsSQWLAf0KfniHXs3xzFRTAV3DnGVYVgMSNw9NU33mq6TLxQKszMzsw+XiqXbbDv+o8t3XFFadfXVsjGubROimHvwv350WTKRfG0qnbjJNM3VKEUAgAwGXSOj7fsjgxH5KNF+PQ0IVay4UH9TIG1zy+T5RAOstCQKLKSb5See3Hd4dGrm/p94w+s+v/rCzaNPR9MSk5NJSpQHvvu1/7ihnJ9778q+wctihkm2bTKXlEsWSoxJhBSLyZhQcT/Z44jiVYQEfkuCDO6fEnAK0I7kRxoyzRbHv1J9W4JQxYxQ3ObBoW20uQVXM/obQKeOF9cQP/gbu6UY+w2luAiEOlpEWFsRVhDWUFCj2iAn0Gl8quA2ybivb/WGj73tV34TQ0eP3b2fDmVP8/wZA6EQ06nGZHVzMT//xnqjepMpaKNlmV1mLCZPYrR41P7izo1NWcDFO6rcyoDzLyfYosV9zPopQMrXqsRGKpHkCwnxInVBkdGLxeN8sUqlikwMYCqtaXKBGova94Oi7wfj+/cf/X6r5d6vkXi0d83I3NU7rqzRcMxsHZntufPeu1+ZSSVv6enpuaqnp2cAczMbjQaLE+E7EomE1Gtp2xa7o09nCRFH8fEo0IXStVZlAVPXI6HckFXScEw8aqzZopbnUzyRqk9Oz87u3bv/8Qt2XvL1y6646n5XhIEwdJd0g+ea+U4jiYC8Vi6ku7uTTbJ13c0XVjx0332/LBruNZZhmgAbjgmNviwCFQk7wULy5CYRkhcN+ITLr+QnIJ0Is6csILud/uKY8BhLRlpCDAsVHDosBuBxN3JNo3g8zvvT7oqquBAghCWUrqlOwpDlErjDbAkDQb7jU6HUoInpPBnJzPRsw/2LD33kE5/Pbt36jD2Hp8PoGQFhbXZ2yHOKVzWK+Z+p16tXaGE4nLBMDSJBaCNpl0XguBh+QJQxw8I54SJloR6NfFzYaFjliV74dCDUgohyJY7FhnyhkRwIQ+rv7+dF7Dkya6fcOSwupOMNM16o1xvTMzMz+4vF8l4RBEc0S9czqcwW3TQuX7Nq1RbStBxcNGQ6cWy46ByXcNJksQZKdBTqJhLRrhTQFrujUt6B8/HHZQgXbmqhoFgsxs8163VOdOC7YxamLBmckketsVyuF0cnJ+ZtKzGf6cm1YIgGhoZ83/diccu0NS0wy6ViLGaQEwROY93qVU5+dmZHs1Qb1jkjJo9r8U+ITneWIAxYIpHBFhGx2QJ6Ls+QUB0QEOaFyjfAiK54lkSMSNvHWUqPzyYZlrwpKqAtHs2GOLi9z/G45wmDbeyFTpBAk2wbgJw9MD8kp+HSzFyBQs2m+XK95cYS31+/44Jf/ekPfmzX04HrmT7/goIQ3EdnfnJjrVp4VSWf/ynfaW43DT2TsC2ClB2fPCtOsGYLBdbIVUNWk08sA+zY1u69wc3xMF75RGaS39Ju/U5gCYVOlh6BXDEq1E0gqtMhMWCbEjT4brmfstsbF9TzBMXsBBmW2bQsq3bgwMHG2NS46M51J7ds2dITsxMmEkVIv3DCqC1mwX7LYZvHDmCxJVS0qxODMORFejIQ4j3wKNRChlWAEK5y6fj3lsOZSOTnIRffaDmBJ0Jhx+Ki3mrqsZith2Go4RzAXcNAGKdZI9syqDudJbfhsCw+bgZSkl6eF+XysVMftSJJAEauJQMRA1wAUrBfZKyn9g0cUbzPbbUWhJv4ufBYcgbPI7uptYUyyuIpt5SVt0/grvJ1EDrZdlyuFA0lCZdHbgc88ckj4YdUmC2Qy42/CZrKlyiIJQ5Plku/94U/++Mvac9T+eoFAyGYLY3JA+fPzsz8rBYGNxiaWGtSaGNRgJTLiwqJKDAVjluGEnDKDVVuqbIAytVCjIOlrSERoNyxNoa8SrzITzsGQOWGyh3Q+exzgTl6r74AEkkNg0VUwFDxWxuOKAw0SibTVKlUuOO8VK3Q1NQUrVmzhtKZDLmuz6USfMcCCKM7Nyy4nIErbzgKNHLVyEyd7yyS9ItmuvPChQXBHTvqkWMAKI6kYohEhfFjYfKx5AizXvDduLmIEDd+8kNBXjQMlM8hTg0vYsHxK0R4cf34/wihFCsslLEaAKnmBwI08YQs5iMAUEkkOXkX8wVdsgzBsTFAg787zSZnRDF9CRtEhjmODCUdDR6SIgbAlcSPnB4skyoq5lM3Adx42kF4XMlC6BTD+kO8THCX4aK75LVaMiHkBtSsNKhYLDO5u9J0yOrqLuWr1a//xK0/9fFr3vTu52Wq0wsCQmQ/KxOtC/Mz07+gi/AGncIRk6Vi1QXUojqeDl7TaYFQxT4AIep+qEGp0gNn33gQCO6y0SMXb6WtOe7vynwKOc5ZgY9dF8VK0aJ6ERZftJQW7DKXQaQ7CRCWy2VKJJMc880XCzQyspLsWEzGRu31sWigJt84UB1mLoy8DO0JKYV8gJBvI6qPTonjKhBG8g3qvCwG4cL+KkvfZvFZ8E+11/FCFyxXwZ6J7DeIamqq3iYLtXyO4AriNb4S15XejBrWotz3sfFRJgt0d+c4LkOGlrO0gshCe7DwyG01Gbg4RmRa8TkKjHCb20EIN1sBibs4TIyqiW5gkZuP2FSBUI1ma8+eqvfrQicDyRleSyG5gUuO16JWq8keAm5w9VKV6tUG6UaMyLTJ1c1wsjD/yMbtO379Pb//v29/Por3zzsIkYCpTtUvzs9Mva9RLb08k0z2oY50DIAycJf3Rh5gd1z9SO2QsoTKHV2ceOD3R/U9BlcENqZFRZlP9ajqgqp+yEOfo5nrFIEQC0ptylIzOBnBKgFwrJiujgHuVSKRZEuokh71ZpN6e/v5wnLKno8XrIxjFg+FYglOWPLofERpe2UJ8bjYEiKhwS4xs/JQxAbp5fjhmpz+j87PQmJrgbYV2aXIaqpR2LwQQ9CJ5ILEfYhJDpy0aKelHd+2hNiJQRm1HB1jvkjLiITNxMQETU1P8mcN9PVTNptl0FXKRdCmJbDhdbCFbPH7cPNg68j9fvJmqBJkeD2y6Yizuc4XuaPckmTJBJEC4cJFjX5pDwcAQuHJmwiuYytwGIS4Sfiwxq5P9XKVDDLIdXzS7Rg1hKCa486UXff/+8RHf/cL2Ste8ZwTNM8rCDFOq+yUrywVZn8u9JzrLV3vhVWRgunq4rWDUCcBmfO2M/V0IFRZNZX9QyZNuptcgV+gdB1zRyWXRv4/csWYWChthIYMWRtTpf0iyZhU7V10B26rSeErsWDQTVCr1o/doXWN0uksAYycFInApqydko3nhBIWU+QyttcBuWAMYLQ1rbYvRuWOyiGaEoTHfU70mUwNawe34m3yvUXaOyZAR9xTdbNT9yiUaPj8LRqJvXATikoeyPyqm9YC7SxEzNqkGGZXeA5NT0/T5PgEu6J9fX00NDRAjXqVAs8h3wu5P1jWiQPyWh65Hgr1UtqCE1hRlvq45A/aqaL6JFxRBUDOZGOQaeTWHndulFcjdPKaiGM1ZvY0/RbvL0DIcxgdj7xak9LJFGvqMF6tOCW6sq3Rqam7X/KqV//q6z74ew8uBvrp/v95A6EQk8n5I/nLK6XC+0On9dK4afSCWwi3BJtKtHBdBvc/xMUcGyNreGxbvEMLRXq1yNpS8ExFYzUuziy0DQaJAhUsZA4cVRykel0VaHH9wPeGeyW3drdF/X8xMNXe4u9e6JNl2+RE2VOuRcVssq041ZsNisUS8nMRXC1YQpmUYkuoy1kNyqrLRQdHUFpfZQll6hxNrZJnqUCIqbTILmI7DsTR/9liRJZx4TXqAODaqVafk6wcgLA9joLlVv/HtQOBXIIisposAyP3Eaa15cjJvqozHokWeA2FQoHq1RrlujIUj9sUjychrcYAcFy4q/IzmbSBDCsz0o9l0hfKDCgZGTJxpuJBxYjBfgHw6rgXbjDR+dYDjdyGS1qokRO6bAmbzboEYbNJoeuR7odkGRZVyjWOPY14gqxUihqBN9kk/fNve9fP/sOWG37yOXXfPy8gFGJ/rDDpX1KdnfuA5zSvt0291+QyA8ZSRRYHMOTkBBaj/BugESyiwizeIVwE3lQROpoxwEkIHlx5bEgk3E++4BH5+RhNTUYNP+6ekowJYKexM2ryT1tG9kQABDwQu7C2BKbDgntGslxi6DrXGAFuZAuRAmePlpM/8nEBgEyRUgNPIvAtgCyqWS0St1XuqMw6YjLtscTMcecpsngAYbQKF2CmrAL+oOqMKh5l69/mmh+LqdT4M5AWpFeDm4gvoqm93NEUudWRy4x9xSQkjuMiHiesGRZ5tVrl+Dk/N0uJeJw9Bv5MD26sR6aB8oHJlgw3CuWKwqMCC4ez1RjTFj0qEDITJto/HJ+q/aobg0rscfwZ6hTAEkYghCtabzWp0aiR22gwCJOmTdVyhSzdpFgixbFyqdmkrv5eb7Jc3WV2DX7up9/1s7dtvObG2ZPcx572z88ZhChDzB/ddVG1UPpA6Hmvsg3Rz6OKIcoa+iyZjruadMGOgZAhxNYQJQY4Q8dvygtUY6wWZ0exkDieCXzJHWTwydgCIOQYMSozHEvIRGBe4JYiMEfpYBEII0st76DRPWDBSkaxXcRR9UESNwyyrRjHUjhWC/MZEPQbmIsnrT0XC7A4oiNdsLgQSmqTBFSxTxj12T2dO4qEl8r4nswSHndm211fjoUU44RvRdKqtS3iGBISbTcP3FzUcXBTMTKznN1UWJfTdJXVRikD8Z8TkRRwfRYYLLpOM1PTND8/z3MDwboZHBhgml2rjqxkXg73XGD/hBwLKgoaA87UGIyqNIF9a7d47Q3CqgymAAlLqHnYXyIncOn/tfcl8HJW5fnn22afuTf3hgBBNgVFUNBKrbballqsGwVribVa6/pXq8Wl1AVFgyBUUTaXKmpFxaWiVYulVqhSZSfImhDISm7Wuy+zffNt/9/zvuf95sxkbkhIQnK9d36/ZObO8i3nnOe8+/M2ggaBsFGbUU0NwkquoIa3bFODiwZVNldQrSRStSBQmVJBNa1MfWiyedehxz71qre9459uOuSEE54Qff5eg3D72vufNTM+fE7YCs4sFwpL0EXHr9co2ZYKUrXtBQlI0oD+8YxRnIyyfziOxrVybMOJgETvA3NxmQOM/uSUPAzHDwQv2UYcNyQ7B2CjZ6mqgGZqfs42CEsKzZciK5Y8l1wgQB/TSKE8xxgy21JUMeNaqpAvajWMM2twPLjHfS3JUzWuC4RcmY4cVjhGQlK/2kWp7PKHY6jDHqQYG8cqqbLGUMehWpnquYs4KIDCg8KDrscbmxPlaaLESHtwSRLqrru4Y4CQJYtIGM4NdRJbxY6lYnLwMoBp+4NygowX6h+oayJ1XmmCEITvk4qIzQbXjwQCxCtxz/AwT4yNU1ior1RWfX19adcl2Q1di8dXbD5o+aSOwsyBt1SHWygNjrxLvDmTBqGrIyRjB2PlRJzd0wpD1WwBhFVVq9VSEJayeTWyfYdasuRQ0nRs11PlRf1qbGpSuaV+5ZYPmXzg0fW3HXv8cZ/9wOe+8usnUjS9VyCsj21+yvYNj77ZUdFbrUQdjUlL3fu6goENe22vkCBqn5Lqy8DxAfgQIkN6Js+f7jsO0BDwtJomvJNICKbvUEZJl3dUF4+2JaFUV/R4hmOIEue1mzv1w7SDErS7kj3HMUmaVPLCWipTzOvKci6RSdOmtMSAOsobTpesl/Nh9SNgDRMK/ChYPJQ7yfcNTSCtBscYUGiCQzESQmDFnvyh+j7afyP1iuxL5MXiiuGTMv4Ow2Y77GBeP5kPlg6GmyC0OMmdkg+UcrLwTur+gxR058RrchTpnE8E4mljMZK0sdngPjLwEiMk4fsUGmjWOU4IuxC/WbyonzOMdAVERku9djkS6T20tXGpGm8xEkdGJT6FsmJOm4OUxjP+pnUVJKQeS5/DZssnEGLzwwZdn6mqZqNBHt1FAwNpyAmbAGrfsoU+FTu5kS3jEz96+rNP/uzffPCidY+rf3ZrfXv6A/l+MjSUnwwnXjozuuPjdhKfomn4djocBssEoWmPEGgdkWA67YpsPqaso5iXkL5qW1AWJwMVgxqkwXRTSprnnO0esXiwkzIIbTpfOyNHYncSrWYJQICEGq3V6UwBTTJ5kZogFA/oLkGIgLcAWiSg5kihDQn0DX6L1U2xibV9lHr7GF/poysfvB28l43QSOzGXYRRU1fEsypKdhaeDRCKOio5liwZWS13MxnaDOB4IXtLO2WgkeAaIdVow9JUhJGZgI2NxEdlfLv7rnDIkDMmjtXWoU1UgrUI1CR9faqYY8ksyeiuLkVL16Xh/cV7nFHUZmOTeKvYhs1qPY3B4pgAJDYBnANA27FjB72GWlxC9b2RIgfoZ3Ml1cIcZHIbxlrhpX/99nd8/+iTXzyxJ7h6wpJwfNOqZ02NjnzEDv1XOkncN9tJU2PdGJx0AWHHEr3TmERSs2jRMXUdPSJISU78lQEksBII23mTAr5usPe6PvbO6mCzhCy0JLT1yk4lmJaGZBNB7YEaaTsqk80xOJUuFtWLWGwnVGCYj26JSN5JLMZEVweQYwLvsTYQ6v594mEUtmmMD8X0ZHy6bjCND4r6rIP0slFRUTPU0YTjjDbS1gxJKJsI0rpYE+DPxStJJgVsQZetUiqE1QAkNVRAKK3LjFpAChtoT2+Arr+0Qegwkt5sxOOLLlCQUgAT7hWSEGCAZEICPBw/vQAo8y9JAHJtEj6RNVSdnCawkWqsASg5wrjvoaEhSjbARmCqwRgLjA00t1yxohrKqm+fqf7CqQxe/L5/+dLd+x2Eyfh438ZNq/+mWZ/6UNG2j5Wiyl2dOAVex04lJUbS/gohBdLLUre6eMdk8aUueploso3apUqyyHZHEtJ3KPtYp7AZ8cLZQAj12vFc5cDuc2zlZfLsmLDYYSFVBKkDAyEQ42GCkCQ9qaKsZkq5DjYWkfgAIT30AhcqP4kLSkZO99gLCNPNyChxIsmmQZgkAYVMzfxLlnh83Z6nbUK3XRLEtXgccoFHhjYzvYnyYtfqqKahZwnZzgs1QYhcOZZUWpKmZger3fArCAhJqoVBKqVwnZW+Usetm5svXkOq7UoS1qerKQjxXXHk4FxQS+EwWrp0Kdn3+AzPshEhFuxXmypfrqgaqERa0dq7V679zIXfuOzaI4/cubRtVkG1J4iV725d9+CpY9s2X5Cx1Z/lrCRn2oHdxxPXcjcoTFBKki+BSSaBMjpidjGLpNMlJrKrYQeFHSXkR70AuCuJCPh15JKSTbuz7Ub1b7A2ADovS95PxAYRmnDcrPYOsmPHsXVcTRPjSmiiR+IbC/iglZbysEdRU/ZRcDok24TuQSSFBi2n5XXTRbRHX9RSiZOJtpDOg07rI3ImnRFDpkMqEXlTwWZDz9h8UIOHBqFCX6FVc/L1pL3mdcdd3Ydecj/pXnQZUrrZkE3GEj8N8Ov7T2ONCVNzeNoUwPtYEyiIxvEGFhM1T5qo0P368SQhsmIwvnJ+jAHOMTY2pkZGRgh0hx9+OIVQcF48y/1XiiXl15rUJi4/uFhtHpsc3TA2dfVLz/irz7/yze/evrvY2mN1FJQUax5b+aZmdeqDxWzuKS4Fi2ep6SOQGIFkfVUpMCxOwZKMD3PgaafWhaiw/ST4K3YHq6xwYuh6PL0oxWGRLlJNZyH1h53POgVMjwJLj94gpGQAh1UQ9OXL5fNcW2ijMNQo4bF0fRrUQB2aoIWxc/Yp19gZPdcBQKoah0dVez/JO5oCUNvLRqyU0+I6p9u0C8m+McIS4tThxRpRzI0y6vQ9CAjFG4pyK1ZDubAZIBTPJN6XAl1R7yjuqCkMcS6/0WRnUlq0q51PKAsj7ygH80Va4b5Nc0M0IDJHdKyRQhQO1wgS65q+/24piHuUyg7TFhTvs/SjEADS7Ns2qb4AIf4ddthhpPoKa5xZl1jI5lRQa6gWEgq8gmo4zuTQRPVHT3vecy54yz99ami/gXB046PPHB8ZuiBu+We4KsnBLO/uC26eXIKls+1WKKAUx4MMPiUxkkcrIlVEVK/utlds0OsQh1DpGTmkbR+h+A53fm6Jd1UC9unFS0IBF6UKCLET5osF+uchGyZ13beBSInF2rGBGCRv1Z3gFj4c6lSrF55Ul4s0JJsQklKKnrUUZKkW6evaearN/AcmSmpLCpaq2oa2YuVSEW6iLF3cKmCk2CkRN/Gm4rgMPgTvOS/TYyInvcmKI4XmUJxrUAfrVe2YQehFSHvxmmv3mnXUC3Iwn+dfb7jaK96o1siDjhAEh3M0rSFs5yROKRd7mzvt7J3ZbELmb9VThNKpVktVq1Wu5IhjkoJki2Yy9A/vsT2YoQoURV5UVw3PNJRd7pt4bHjiv5/1wj897/Xnfmy3Kyz2SBKCmmHzQ3e9KvLrF6qodVLYbCgPjgidYtUL+bsCIZzmiCkRM5q4jPVE0MTECbNtUfyJVVX2vsFmZDsJ7nwBeIeK2+Ulm21XaoWamBpxQvNLSO7VsUGmukCAyiF1pFAq0j+PWAG4Z3u3Y4PjoojZsTe1JwhRPlNvzqqOUiGszhgRacG2oQ5TaE1DCkJ24uEhyr72+LADxHRixcrNQN1kELLaqTNjEI6hILwGoe0RfQUtPorTZbieEloKbYDtNtVyfZi/eqOqnWl8LwgRMEcMe3+jQBwy0EpYFSe1XDYm3YmXfAH6HAJ0TFcmx8kEs23y8r5Iwm7HDColJPgvsUpk8+Ae4REdHBykNDvcN5IIJBcV60CFkSpYjmpFkWo5WbV26/Yxu6//P4458dSL/v7DF2zaL5IwmZoaWL3y7vfmneQfkqC5mElpNT+mSbenE21FfTAnXsBGoKLIKvrLSeEn76IiGbDwsIhI3ZWcSpmMSNMY29qGtwAAIABJREFU0k7cVbBrAJB2T/13W83R6o9hU9F3yK7hkAmpR1Sg6lKGPSSDV8ipcqlPFcslnnzaEQssqSTLRGf0s/ADrTrXq3ExeaxC0DdIbiWCakStx7FBsZV4EfKOTxXe2tNIMVPDO0xBeGMBdoOMOXS4NIiOqWNz+AmNC+wsYghoV8VTrig2Vr2JkBqG4Ly2CWHzimMC36PcXyPjB44T8/5IHYbNp+sNYQOn14PNjTYZHUyXZi/YWLXKnfak18XBvBm15xuV9d0gNNVSUUdN54y8pueQbU5cM9Lo4IzBmEEFRUgEvxevcOoZ1ie0ISRmqiQJp1qxSvKFoQ0j49/723e89bIXnPn23SZY3jNJOLblyEdWr7ok68R/ZQWtvEPlNJrfUdf3SZ2fPFN9GGXxJ0RrYD7TYMKTpt3bqT2gJ4BsJuzkepJStY1WNJcsdbvou9USM04pm4E4i2STwD20N4e2tBA2awqKux6poKVKv8qXi2wjIJjtYScW1Y2rIszcRXyO+ydCXqrKB+50w0uAqoPegcmMwADHkh+9FzTRlVbTpIpENi6W1jh++xnjiuQD9hojIwQAhNaAMA8nLBHIcLmwCTvoIbj6gOKAlkX3KWopGMlchx0zabAc9ZxE5BRzsrXYdFpag8uGZiolajJAqH9D86LzTc3iXaimZBNrBxp/r+1J581Pe2d7hMDMeTU3CnMz9hyXgAcVFNcICYdwBPHl6Bi3lEiJliCbDO43RFij4Su71BdNB/HqkUbrU++89EP/cfzxr9jt3h97BEJ/7LETN6xedXlORac7UWTBLJcFbTpEJF2oXcfHOZuSLpQW32J3Q+5nusD08YSoSEtCyp4HEEVF0aopgYSkrlE536WGmnFKcwfs9ppSjqfs6CK5LKX8VkghiUwur0qVsir1VVSuWGC3tuWojMMZMVQdYvRtJx1USxBaDJFi1a0jlgbvIOfYsrqEaoG21MKPiB0N9yfOGElX03FCypbRaWlp5hGl63EaGcBPwAi53wP+5ooHEJ4mRPXHklCrnRR+YNpHDljD+cR/i1OCFqOursA98rhxHDd1emhHSkszA9D7Qu6r1VGmvNfZPzpEI1SXWBc4LkkyI1mB8pKl6oQ2zzZTwK7UUnMDNjUzSD+YPBhnqJuQfvCISuBe4oOihss1ETNAK6BsGqrD9PLjLTfzi6mWc8nF3/vPB3ZXFaWNZE++PL1l9R/t2LD+CicKTs1SHqJ4NzttjV7qZ/cgYNFROhb1EuABJ0AZAXl8Lo4Z6TcgrnA5Hhn4Xd4xE2CPB0I5DhYtqspToCJ9TiWq4QekepbKFVVa1KeKlbLKFvIpv6ZLxOBtEIqESBO1HQ4EU0we7nUDiLT5gG3MKPWBekZqo16EqJek+9FpYKkkxMxTzWGbY8ccd6mwTyW8Loo1Mz5IzULGiU7JS8uDdJyQbUQd/xR1VIcnUhBKGp+xQVLYSHs8BYQAIICYcshIh12iNmwnK5ggZPWd758S80mTaoMQ4y7UFuacm69NTckcH1n3w8PDKfMdgv9CkSjHgGSUOkU843hQsQW8UStSieMq33JWVSPri6c8/w+/++r3L9+jXve7DUJUS4yse+D0yW2bP2eHzRML2AG1nm/eXPdrCX6aUqitDsAmYpsv3U2NOCEmkkBoOma0qibngb22qx2wO6u++/rkWkSSk7pIajI7VPwwoHBEpX8RJe7mSyUq4iVJSInMbJO0pSAv2tQrqtV12vCpeSWHbZgGMFJRo5Fmm5C00DYTMUDrdC9aEFpboIR0StDk3FGWdu0wULqp6EEhZ4i2d2VhpXE+JD53sZUJBaAkH1B2kHY80e/ctjoqJL8EEh3ra6ujuK6Y1El2pAgIWR2VJp7t+CI739LWZlryM3MAM6iba4jsZNKrdVrhLLFCIrnaxYOIvHQlvjhvMLewCZGZA4ko6qiky4ntCJpM5EL7STycZHM/m46iz1707Zse3hPBtkeSkDyjD9/1qsbo8GesVuO4Emro0AtA72i9gIgTdBvG5kBSxYMOtqeTpz2gspNKJ1dpfyUZJmk7ZEwwMTzvrJaY4Jxto5DMFLkuks+kDmtb1rFVtlggEBb7KipbKFDRLtWzuY6yYwYdHiwFtVdUKkW0kwog5MWnHTRkt7VB2HaecBwt9YLqxZiCMLWftRRMgdi+fwYt/y3jL+PZ7WTAvbB3l0MsACGpmzrEIoXI8P6SpJR4oa60YHbtNkVlu0mnrocMtH2bZszojkpG4W869rsBQvkugxBREk1ZOAsIkYomm2SvZ5rHrn4VkIZQSQFO0/7FupBMGqq08APVjKKGymTvGqv7l536ouffuOwDl+9EAv14oNwTSZjZdP+tZ7WmJy6OmzNPqyB7PgyIQJbUsVm8o5yd3naLm95R6qaDEIH2/tFn6eTwDg7qOQrcdyUIU+UBikq1PjKbOmKCsxcQRVK0NwfuR4G/Ia3yhRKBsFTpU7lSUYGsmCrndcYMgZBnNy35Ec8jqUs6LUskYUS2mQ65wPGAds8kHsV5IRkznClD3mJtE5O6rkHI9xLpig4jIaK7XhAJ4EbSNuonxSWPFDvcC0VB07xQtg2lFTZ2elFLSRJq76gkesuxU2eFaEc6fij8rbg/Ck1IQkKa6N0O1LPzpqvnfKRpFMX+12uFzkvuYObqkTXYrRWJJDSBZjrOKNSgiZ3xWtRPkYqQiLI2sJZFFYU0xNpvxdba0PW+bDmVa8771o+fEN/MnoDQW3/vb/4ynpm4WDWqT6/ARR8GqoGgqeY46fVMVQAUgmAHQfuZVawk8NmxkKY98QLljJlIkc5tuuaNLH1OYO5sNNILjLNJQQy+SX/AC6ldqoTjl/oXkToKEHr5nHIQJwOZUC7LntG0DlFXH2gwiqpGINdOH/GOiooOSdjCTg37L61Gb4cqaBvQjVEEkLwg4Mxitjmuj2zbSTRumi9G7q8bhJKITHV4uipBYoTigEkrRogSUvpMtOv4RE2VxZ86nMj2bJcKiWSkRR0wqbJI/TQJg+aXUxDbcUK9EWqG8U51FMdncyEwyJN7aUMS1zOdZiYIi6VKKimxyQgQKSFB86fiuqBRANCQrATAZlM1wmSLVez/0dD24c9c/rPbnzDFxZ6A0Hnsnt+8LGlWL8lG/rMtcHBgV0NJH1zk2AHJ5kHMS0u0lPVL962jXZIXEWfF4HsMUsmYSHdUGlwK2nGWhHYspJMkpU1GTLJbInero6YUNndwtuFYdQu05KL0LKglxZIqlkqqf2BQFUpl5QJ42k6CqtZCYShJCOSRGoXB+voorczITYSNw8FqvfGQTSjNLeU++W+MiXQlwjHa1SJS2hRptrW2JOD74mllTSJOuW1EXW5nxSiS8hR60IWyqWNJO1akCSgLe0cX77ZzVuX+Oje6dhjBLCVCeEEkDM9FRHSHvNlwHWI6/1p690r2gK2JBHuuR+3k6On+PY2joW6bzidkOzmgIgH4dEZMRqvjdL8Jl0KVy0UKY2DtTUxMEDWH41qjdStzY7Ow5Isf//J3bn08lXNXn+82CHGQrSvveFF1x7ZLclHwIhdeTThOACwjY0Jc1KbzhRZQarjrUiRSKxB6EEnZVtNkgdLOJpk0EkfSE5n2MjD6LpgLoRuAO6lNWm0D5TmDEP0lQgIhJpcyQjIesablS0XV3zeoCuUSgTBVN22HGLhQUSDODqSL0nVLrFM7lcjTRz3XDUlANiHTvMviFGoIyTqB9GAA6thiWg3BTGlEOcgE+ww8LXUFiC0w+uKhCXYlB1Q4WpwCL0JPs5N1g9BkQKfFbJBhdat+7TlvM7+Jum+CT9YIs6o1UoKuVJoajU9FUzHVTVPbEXu81wYrcy5SXtTw1M7DxomqCJcpEkHFQXmxmhAZ58R3x8ZG1JIlS9T45IRat24DQhnTY+OjD3j9h1y62e//5Zeuu26v+lbuEQhnHlt54toH7r+oaCdnFCzLBddkveXrerI2LYPpEZXEW5EGZslLLxCaaimrYJ2V9ZJfaQ56LwnYrZrMNkmtls+OFSQjw4UO9dbmIDxAWC73EQgr5UX0DBDS9yENwf5MrE/tOjsixDVSyyjkoL2ctCB1ZyG2f0MVgY3ObANgVFHwJtRpc0vmELMJsC2ZVsqbtrd2DAUtthdxrVhQ1Owmm1VeBqq1p+wsxwXNpGw6rxxL6DlMSjwjzZ3sVMMnYAKx+30BoglC5tDpjJ+axzDNBROI3Zts9xowASj2ruS9itSnJqGFQmojU9W+QYyFY0ATAZP6Y0ObVAOeXmU1JsYnHu4bXHzN2h3DP7jyP+/c7cyY2aThHoEwGdl4+Irbbj0vq6I3VVyn5FqWqvt1dg50xImMrAaJd0mQWurntDrSLQk7i3aRVsSLOCW97eBgkWB9p3e0G4CmFBQjW94DpQLt/jp1CaDC3+hxAHW0WOkjZu1yZRHHB13OIKEgt2MzXYeZ/EzCWxfmQh1EAas0QukJQokTsmOGagnTJGjcty5l0lk9aYU9tAhdCUFpfWlbN3YoiV1IHW9JbePEa3j9EA/L5YtcBYLGBEaxbhrS0dKIbXrdXNUAOSSiKZG6x9icAxlzAZ8JQoRkBITpRp0mc3OIqlvimueVTWA2SSlST5LPTV5SOKYy2Xw7LQ1JQhT1aW8KE1PTqtxXUQ+tXoO6wdbI6MT6w59y5A/WDQ1969Kf3LbHVBa9gLhnIExGyvff+JvXJ7WZ80ueuxRkgc1WPaWjMFUOkYDprqZvrK2ucvUE2NLYcdNJ+Sf2j9TTpceWXgxS5Gp4/rrV0e6FIOeQa8KA1OvI0oc6yRXiKDkiiZEvUM1goVwhx0yx1EfxQbjoZWcFEClWpW0OkpAGlYIE3CUWRp5Co8ceVPSQqhzYTiYJ2rXJtIt69cZmqGo8oZ2SSMBHYyF2HDkYsuRMyueKlBkCIAKEiSeZPToVTcczRZvhJp1sTtCCN3hf8b5rsqxJJoshHeU4phRsg5Bzh3cFQnGszAYyAaGopST1DTIu4SCVgLswdKfva80GWh1qNNLGNLpld73pq+2joyD9jSPbWzc6WftBvRF+67Ibbnl0b+xA87d7CMLE3nzvb148snno0oJt/X4cNFVCGQ3MCdMLhDQJOu1KdH54m1jlkbq59s4jklBACPJgEzz7Wh2FJBQQ0uShXRiqBfIF6iWBPhPwihYKZQIleh8AdBInpGAx0cBrLk4CUrt5CV27zv6HfSdZI5QVg5xKn+k5RHqaDij8tk1vIfmmnS3QOqgGtVMG4JMNCPWPSLsDuS6AV8iX6JlyQrGJeEwZmOaCapAJUKg7kREH7DYXpILG3ADN1wJCUwrKa25Mz6GWjjnuscHOJg0FcLOFIEwQijRMvcPSnoD5x5nlIOQ+ldRlCgnaUay2j4wpJ9+3th6qHzZD52sX/ft/7xMJKPe0RyDEjxpb1x31yG9/+wknCc4OG9WybTE5q4BQsujTYLpWR81SlLbNKFwqbRC22dR4sQkI0wRfnVuZZtkb1Ba9bMNe9oppc4DunCZK0zegSBeV89lCkUAIBm248fN5OGVQQyf1deyup1AEnB46A5COLXafjomlapbR/osXc5hWlndLCinqlQTujkoTXdAsvSKkVKpTE6CMU3IsAXDFQplsWgEgrp0C8Z7mitHBdwFZ6sEVx5fEMY3GNHRfCDF1dQfupZH0loRtlbobhHIMSaLelbrZHWxPNxQd/xNvcLdjBu+jaxbFqzVpGMCHGk+/hTZpsWrFSTLZaG1MvOIPQzf31fOv+dmafSUBnzAIk2RD7oGb7l+W+M3zmzOTx+UcqCpgMdZeT13KwiDUuaWayMiUlOz9gzrKoQiRkt0gBD0CTUiXd9QEYS+1s9tw77ZZRI1BqQztjEhIRgaMwzVzuUKR1E84MBDQzuVLRPVAic+adl2oHyh9zQChGYZAFQHSzOjeEScjtrEgTdtCErCoeOlCNUp5uOhUUzoa6h4WDmQp7BpaoDpiTYuZqip4f+3rW6QyuRyBEWlYAKFkiVCOeYa5YtLFrr3YAkIpj5JkAjNEBAler86kUtfc3GROJIQwGwilkcxsklAYwE070HyNz80YoABQnqXywQSivMbvfBQV0/wgPNQinlOKB7Z8koITM9XH3GL5J0m2fPW91dIj1113XTtPch+hcY8lIc479MBtz37s0bXLyzn39KQxXU6CJtWFYaCFwi9o+STFaDDMOJj0saOsFJD3Ms2CgE8mizJFQFmHUpiOejVDdYWk7OqlYAISvxepK5OCYKvUjJF6ltPty7RXFN5PvJ/Nc3oaGe6eS4ROkIzkNfXaqWroOkT+SW3LsXOlHe8CjyZVwUOC6yaYRLgrXYaIrJe9oLLA+RgsKcVLyQW7nXWT0mQU6iZJNq5zpgdTUbjqiKVH6gTkHHPj6NxPLMDYSlQ2z5SFpppJ55cDGVSTndenVUhSvTmYnSZnC+W9Uhzn3MUDaYmpRDBsOTP0IHaeGWSXzwVkZiwwTcEDebHOiJntEmrTNeqBWCjm1Pg4J7w0/LqamJpRpf6+9Uk2f8OatUNfPe2wk1cu2w8ApHt7ImAeW7OmsnH9qjNmxrafX7SDZ9hYVFoSEumTDi0AUGLTiNteJhJJ0gCnZEKYsTLTOyiSUCSlLF7ZdXEcU1Xpfg3vmuyWknKE34qXLKfp7oh8DFUDmSz1kgAI4bhAF14r46qMl9cET8y2JRkxoF4gqQpJrYGU0lQkTGorvJrwBMpCRVID3UMXCNubkE681vFMUpm6auYobxOKsE4eIAcKbNosV4HDEzo4cAhJS9iGVI6jHUsCQnxmhggEgLgOie2KpE7tWbl2nUi+NyCk3OEe4BPg8T3xMjXVzu6/TQmYxjq17d5LU5L3AEJ0XdqybSvFArfu2I586LhvYPEjI5OTN67dPvq1F57wx6vfcfXVXNi4Hx5PCIS4jg0rbjth1QN3f3BR1jorEweLUkpCJHTrkiQMWkAcKu1SFRS0EsO0tjUAwo5sGcP7iYESEKbZ9noBECh1fqcJPHOh4n1hyMLiB806QCFuekyWEBIChOT1zGTZFswXSJKgMh4g9FyWJJCUJgjJu6cdT1iMnB+pAYaMEM2RQ84Ig3uzXZLVVZkulfO6bhA1tx33lAIRY6pUoBuzCEEVNhyonf19A8QAAMcSVQFAAmbaVfF8TN3pSdeFygaQMt5p1dTcIOk+tNTnTCfsP3zfGGvRPAQ4Zoih9/qV3o/tpWiC0rTveknCboeMCUATyLKJp5ucVu3Brkd9MNBzYnRMVQYWNSbr9Y2hsn48NtP8zovffNQjy5btexXUHIsnDMLt27cX195+0x87jYnlVth8nhVRVwLKJ+VeAyhG1TGXlBsk7OhZjoWAfhId6qbkUOpBejwQ0m93kcCLBYgFgnw//MOkiZSgCRTyXGk0CUkowWxQGkL9dB3leAxCxAkx0dzfQhv0om7qEh3Jl6TWYFDHjGB0Z68Jpr2QTYQkqoQCtMcQVH+zgRCtQOuIQ1KyALOhYYMpVypqYGAxcaQQbyh1OGoDUM6H4yJjiIpmNfjbqrBmQTBS7Ex1lKtP2rQcs4EQv9nVQ7y7Ahj5bre6aUq+7u/2+kx+3ytEkjqdyOurVLXeVG4mq3KVytSGTVvWJ7n8D0YmJ3/89V8+8CiSqfaD8Os45BMGIY6yccWKw3esv/stUWP67VGzeTRu3LO4J1yA+BJahZHKJDmDOjmZUt1YvYJjRpwm5gKQtDT0Yuj43KhMhyQknHdJC3PRAlBpvp/jEACFuoCcEbqJJBE1IV4ISYj6skyOiXyhvmkQInQBx017p+b813buZ6Bbe7UZw8j+FEo/bEZa0tM9oXA4BWGb8FjuF/cGSahRSk+W/AD2rmWpaqul3CxTMLKELxL4kP0PBgBIcraRHHbigMBKYrLE8t2ZIE+gkSoPxDF7gJBid9gsVaR7RuxsE5pSaFeLGJtkN/BMkMnn3VJQ5qBb8+k+VzsuzU7CDrsWjqV6U5UrAyp23NF6K3gwcDL/fu/KDT//j3sf3m22tL0F6V6BECdff9MPTx4b3vTP1YmJlyulBvPUYxwlOqAMYGJbnnRxPLAqSh1yQB9ncE6SyiCLVIh+jFIcsVfS3c0AoQxEt2MGkwUQQiKBqkD6CeBc1EAT3Wp1BTl5SaFuQm2DxIO3FLyiIP11c6SeAoQpz6d2KHHjE62Kiaqmg+9o8UWSR6hAjGA33kdpk3SiosXXNaMpsXJqG7bzMgFCP0konIIkc9yfxAMBQJLoLue6QhriPgH81MMZQ1tpl4l1ps/x5ihFuRJ66VjEKlINatwyOwhN1bLXYjVBaILPtANNkHaDUSRt97x324G91VF00ypF0/X6jnoruTP2stc9vGn7r667e9VuE/fuLQB7zfkeHzNZsya7ccPtL9iyceMHfd//o5zrUl8KMCsDhPB+cbYFewwDzSq2kyQ01CHTMQMXPkuNzmQAsQnZwSDCopNDEu9C38dDylSEuEgcD9A2AEZLc2pSgjYxa2e0w8MhELqO9opq7hXuvxCpEC2dtTdU7L50kUscjcS1Bk9Hxgsai7IzRTJfEPTHQ8CXeik1A5zQVhCA4XiAZAcIi5wJAwcMFaTmWOKL04aImzTXDa4voN4eobLB9maQSInkEE1E0tb43tqSJHW0JSHN6Wze0W6QdS+w2cAm36N52oVjRjJqRHswnwXUszlmLGVP+EH0WN+iQ27fOj75zfXbtz/8nTvXTu8xCPbyB3stCXH+sTtuqKxet+a06uT4ez2lnu+oqEjcMVicSNA1OCNBR4HWVGlMiZiYudrcVB1kEQgI052sq1RK7DNwxHA/Qn6GwY3noY1DqrKoovpKfenntocOTDZlRWDR2+gu5HoUjJcQBLn8qaswjD8OAUhAHxUXnOMM8tpprY5yXz7T5qMFRKSqRtV/R+kVg5DZ2tgLiAlJ7SHiZe0kskq7lhIIlSoPHkKOJMoHzeXo+iEBAUI8yyImKajHmew3yg4JyYaHXS7j2w1CmBUdn5mhGDRqdbjfu4AQISOKUWrgSOjEXKe06KgBhi5X0x/yT5B51JYPuNZOELJEZ4AxERSzzUlxsMmryimI9DDIlxPLnrYTtTW07DsjN3fjivse/t/rVm18UqXfTuOxl0Cmn299ZMXi++645SUzO7Z+oD+fOTlnx7nG9IQquK5Cn3JqGkmdYdEnDq85c79Vr+0UrE7DEZoRuT3A7Dan8EaapcGBZu6TmaislyMqxLGRcbVtx1Z1/NOerjv2IjMEicigyMPZkfeJXZYXPyX6QgLqNs0cf2I7kebQSF5mOg0sBM2CBlWTSvx0Uxcj7YpAoAV0L1c8MXUhRkkLmqsc8CxStVZtqGyOk6+xIBHnxHch9QrFsir0VzisooGYzyCWyU4YnK/TMWEkwgvJMhFtaSoK0/OsJTbUeEn9wvl93T+QwJEo1ao3dBUKV6IQ+5rD2TgUxhESZR2KYZYEaqes0CzRQcNE/GM5narmkdb5OQGbN0PURgYBS2PMjWPHykWDUhus2ELViH6HWCPMcNdEy2tkO7meajT8yaAVjdiOe18Sq1snW9FP71+7edt/r1272/SE+wIrO2kD+/Kgq2/5xdK1j9z3mmB6/O0FFT8zY4WuPzOtHN15F7t6FZMIhjHEs8DvIa2uDYeLLBwsNqEn6PCgGoDI2kxPhwcWH74nPJL4LXoJyKNb9WEQYrEwAHqlNXWnTZlOE7w2r9WU5iZoe4EvVbcSPq8ARurvpOwGx8T9wLOLB8AnmS+wWbPFEm0eUhGehUSnzB5N428UP7Oa39kJ2Eyg7vB+GmozromcbQHb87IpkWrsc4FxBKmEYyNsgmwe6pibUN4qtjz2lOtuUER7z1WzUQxKFs7dNB/S3YScd+K5hgdY856KCu/YMHNaTNpMwMU/HA3/XOXlco0wUFNBGG2xlLMyStSDYav186lxf93lt9++x3ww+xIv6brc1wddf+t/Hf3gvXe/ozk1cvZAIXuMX53hDnZRTNkvvna0AIS0UKQTr17Q3XGcXXHU4NqLmRJJBzywEPEaPdBxHHgJoabh0QsIJgilMkLAaKY99bIpZNxkAxD12pTi+J0Z5+p1HVgoAhhx88uGAqmI44OGHSAEMEHLPjAwwKqmSpSTzVG6HcCHzyUlLZ1Xw/HF3udOEHIfQX5PEgnMzBcch3rOa7VUAC6OmunxKTYn4HpC02FUvOsiY04mwIPbWNOzBiArlLHyPC4JI+4blxPjqfeEBh7mD+fCNUkMFtJV5gltDNgnoKtZwJPqeJHtehPKyQyHcfJomFirqjX/9tHN235b9SbGr7l5467TePY1KB7nePvEJuw+x8qff/u4h1fe/97a1PgrF1dKxySthtWqNVTYaim0A6SFAp5PDKzBObqTXajr8Ux1NHWva2lY8IpMlU82T0IBeThjsEgXL17cAT4TBPR9skm4UWiv3EKaWqPTcDcY8bnZ66HbOYDPTZuo10bguCzJ5R6k/k1AAQBK/A8LUmw/Ulvhrc0w3Yanq/vlHLIpSDOYdHPrAUJxmslCN0Eom6CMHTnC0ONdk99GvrbZdJdf2M/kDEKtpWbmlt9CciLRHddEFfrQkdDP3tLEwq5FvU3QfRf3g3Nt2bJF5XIZlc9xs1L4CGTMET6a8X1KrMjkCnXbdaaDMJ6sNxqbq61gpR8n985MN++cmZkZ/d49j44+ydja7dPtFxAmSWLdd+N3j3vonjvf51nBy+0gOMpuBQ5xjIK4CJTsum0ybC5h0p4NhAQUM3/UUEc9xTYUfgsqc/B/YAFDZYMkFODsShKSQ8fgIZHXJmhnk4azucjlmiUBuZcXkCSem0+zTWTWcC+QPNIck/qlL1pEjhdWz5ienpIHckxZKCotyRfN9WOqjmYCdurk0lT7krZmSkMBMa5Bqu5xblFL8V2AqphHk06t+gJ0uj+GhHGGfGv3AAAbvklEQVTMOB/1qkJWEjlftNpoczsBGV+iM0Gdqc4pzmez7GXX4JPxdqxExbY37VvuROJlx5LEWVfz66smp6Yfnmo0Vlphsu2pd62eWC5u592GxJP/xf0CQrmNdXf88Pgbb7jhvV4UvTRnJcfl4IYEV2OtSmDE5ErqmdhX3eqoaXN1A5FAEqJglbu5Ih6IXRLuevwTKTarTabbGAkIJQbVHYvalTqaLp4ec4fjPJ4ktC2u1Bf7F/afqH64fs56YVVTHC5SD0eSMMv1jaL2pmNkeqB1PWC3zUcV/5Ss0CbWTb3WeqOTDUmuz1RLsRHk3QJvkNpDCc0Gc9oxLlZM6iaNh1YzKRRDea5lcsdQ4kLa2Ul7zxV3xiWa+hY3ZvE8DyGEsZbfGK/64drReuuBVmw/5Cv1SLaQG46OOLF69X7M89wfEN2vIMQF/+KHVx4/PjT099WR4WWZJDk2F0cuyI1QUZ/zMqoB4iM9gWaIwrSxdqWO2hFLQSxe/MNChdSQzqqmY6UbjKKOCgi71VVzwE1VU6Scqa52Szr5+/EyQuKIM1ik94F4P6UCHPafqIfiPRVuTPJAguFNE/fS5qElYRpq0J2YUunXUbkfqYDoI9pNXs0xkvuXDVKOie+I2pyxmLez3ag0TpPbWV1nDh8Cn9FnkBIlqMlohihCCIgavLIe8PtWEGAjq1puZiwIWuPVmfpDM7XqfbVm7Z6m5a4/4bjnTzaOOqq2fPny2TvV7g/k7MNj7ncQ4lpv+/nXjnvw1lvfG1Vrr+rLZI9xw5aKmy2YMkSPuCt11Fz8vYDpJh45LWA7YSFDcmDhYpFgB91dEJoA7KWGCvC6vaOmI8SUpKYNtSvvaBRatHlAjcb1A3xi9+HY0iFWnDymRITdFVK763aDUqn/M0Foqp+dzAQRFbDKtZrJz3IvIvlEqktFCq6VkrMDYwmhSBjpiBByFP6EvcfqM9vcbfDyuWxle3lFsphCV4kKde5wCMdpkoxO1xtjiW2vnJlp3js+NbnCisJHn/usF42e+61v1S3El34HHk8KCDFOd1z/jeN/e8v/fSgXBX8RVqtPscNQgd5EIZ3RKFbtdrxQfzuj1EVsIlkkkITwhmIhw30PNVQmHRJDbIhecyXeUUjCx3v0UlXxGwmLiNosUkK8iFJPZ0pK8362bd6RctaImik2mBxL7kc8giKFYEtZHncSlnET8DENHDuWODShKRfFMaNZ7NIkAcMmNsEo/flML6+YDDiXE0sdCo8g6vnb0T62FhGqoDhmIUveUowJrhcbDMijubOTRfSRynYbsbJHpmuNtZPT9duGJ8buasRq1XNO+IORE888s7Zs2bJ9XlT7eHO/vz9/0kCIG7nlu1846a5bbl5ecuw/jprNJehvCG+YGaYwpR1+83gNPWI/IVsQu7LYgrL4AJAnA4Q4nzhBuqUKVEmJPwJMZkUH7s2zmUJxthCJLH753Hwmh4bDVSQd0k7XAsqGRfZZF3eMFAt3g1CuRTYdGT+xW7vtcicGzJCBpJequaElNoEPyRXULg/f9Di8gK8je6ruN+mzfLE8mc0VhrePjG1Y89im39gq9z9Lnnb4xte8+i9rf7jsAwdFPG9/gfFJBSE6O1135cdeuG3tmk84cfz7bhz1eQl60rcpErtBaLrIZYGbC8GvttJANlRRSEN5SObJbIO3LyShAF5CHN1SG44FyjTxfZIAZtAb91HKt2nYe0nbVOIbKqeci5K+bFbnUzXZqEohEBoKG/2tB0McJ4jAmFLalHjyvgA8VXENx4ubcEaRJl3ragtuE01Epa9PZfI5StJAExVk0sCR44d+lM/ndySeM7pl87Z7V65e/RunWLztla/6i+3vuuQ7k78r6ubjgfdJBSEuJklWeP963pffEDWa57iR/0yn1cg6mn2tl/fT7OokC1IcGVjc1YlaqtrAlY+dVxak1BLuTxCarbPMTBVZuHgPzhaET2C74n3yKmrGMzthdc70wPa6XlMipuMAyaq4F4gcQ9L50mPovNUUzEYHIpZ67bP1sl3xnoQuzDo8OZ6DgIMBdM7Z1bCEJCwVVKPpq6l6lfJkwVyXzRfqzVZrdLI+M+QH/q+np2duOuyII1e94uyzq6cte/desVk/3oI/GD9/0kGIQZgaWjlwxcXLP1yyk9cWWvWjPF1F3p1tYto54pgQGwdShdpUTXImCeKC+IdFL/YZvru/1dFuSWh6EnFugM+UcKJOyns5rzArW5m5YHrapNQLA5JlZ5tWgCHgRohAJGi3A8Y8T0doQXorGtk0mKPua2FVlNFMubn0GtYhkunhPEJfAQeJBeP1IBidnJq+f2pm5tZmEtz2nN9/8WOnvvK146eddhpTjc/DxwEBIcb5nhu//8wfXPP1i44sZF6SjVp9vTyfqctaOxPEMYHFDakCCQN1FCooFbHmcjSFAjwB7P6UhKbkFYlhlvWQ3ed5XNvnMXGwpGFRUkG2vJMkND2wvaST3A/UaZBrEFuWkZpHINGcOanaqdo9CHupnKYX2jy/qYmYABUgtseWQUiSECCklmW2qvp+UupfNOxks9u3jo7eu2bDhl/myn13nHXWWWPLPrB8fB5ibqdbPmAghH34vc/+8ytGH1m5PBcFvzcbCDHZkjgsDg5SQ6tV+gcXuVSSS6WBlL+QA6Crh33Hrq8zZfbGO0oJB7oMK81vNJrUSFejblsR14FrQ8bPrh5miEV+Y4IwpmqFHtJJslKQq9mjHi+laNSsBL081DgPvM6mBDUBjM/ZF0pbALeJo6oJSEPHj5U95uaKWzduHrp1vNb6n6c+6/gH//yMV0696My3ziyArz0CBwyEuIThDXcd9p1LLvpQJgjeYCXRYlAFmk1OCEDofKQJhAAq1Mshjak6Na2qVXDGOKqvXCFJiAUCxwfAIGpfu2odO3Wn2sZlb22Omp0XBjvbufTJIPlFiY5+kKSg2JbuG0iJ6bqrE3ptohJf92c0nyExRGpj4ZpAIVJeHWeDGimB8J3txpgKjlPyYcThdGZKqjIaN8WH7JxyabVtboJm1gzirw7xrCJjR8qFNDmVznTh62MJmFj2TJw4o7Ftr4uV/evVa9ff+oI/ecmql572qonjX/GKA1oydLAC/4CCEIPyky9c/AcP3HHLVwYK3ilBraoKyMKKIuU3aqpar1Ob6hYoLxIO9MLqb9arqjo9Q97GI448isdWL2S5oVTyUFQJ+zV2ZzPEpIPKSEiWvVz3KaR9nRZrG4QCCsppBHi1Tx7pVlIhYNbDAVgoWkWiuvm+bApS19hrYTCJFHPnQGIJvaJpi8k1IvlZguPmsxwXdrJIUOEXFZsZYHNdm3hiiBUOOamuR5K9UauSFISWAW5VXDdoLKRsyg9aanqqplqRpyp9A0mUWKOhlQy3bOvBrTtGb8mWyrf83imnPPbm5VcwtcHCY9YROOAgHFnx68Mv/9zFVxUd9fKCFRcrWUc1q9NEhkvqpOWoOlpuowgYFQNhrGozM8T8jMV06OFLGSoGCAlAWtJQ9ThcBBa4QnX1ulSxa9Dh904XGLnqW6lAE0ERoDr4MQkGKfO1CS76bYIaOuRkchaJKZGpf4Ou/G+ne/EcCVWHzFjqCTV4N9ubhFKuDYDoBp4UbkD1AWsQeG42QcDMrdE4JihUGkiXA8lvS3mOS6oxpN7k2DhpHlS3WC7SGFOJFNqD2zaXNYVNqnzw8oVY2X07qg1/h5PJ3TbRbNyWOM4dr3jZS8dOe/P7F8C3mxvPAQdhkiTe5/7xje+pTYy8vz9jH5m3IlWfmlC5DFNKgN1hBtXkyqaSlbgVqunJSerwis/RQZfr5PlW8D+53rXbnGgyCEC8KGlR29TRj15TES0kGwFVH4OeNZNbynHSmx9TEzumIGM1k0FH0bAYfSo6QSigxHlRg9cNvI6567imnQlwXV0QTJoANhmMBG5eg83LIk4JFR1V6T7qE2gcUIkOJrcQYZMIRbvcDlqSC4iFPFegMfHBsg12dfCwZjK43iAIolE/VEOVwSNuXL956z2DA0vuOuPPz5g85Y1vrO3m2lv4mmhgB8NI3PjNq5579//975crrjrV8ut21KipfMYh72c2X1JTtTqBMFfIq7DZUpPj49T5iCrMCxXNAcp3Qpwx2jPYBlZbrRS7ihKGVaSrD9qjQGDWUhALkNQ00GkIGAwvJGAaaXVQdEKLu7PQdmBTUJvkpdZhETxvf86/t1VkxOp6zsdsREdp2hzKiphTh1ujEdcHbT6oRI8tSDy+L/Jcas3ASWI1vn2HAq1kFMXkXe5DYD1XYCoNv0WcnLlSQbmZHDJbamGcwKO5yQ+DO/2W+pW96PB7333OGyeWnnoGl/4vPPZ4BA64JMQVj91/x1OuuvSCy/sz7suysV+yAp+YsZHUXCiX1TT6OShbZXJ51ao31dTEGPGZolpCuZzF35aE6IehCZM0tylXSzCZEjtj2gxtIXXC1Y4XLc/ExS+NajBI0gtCui/hO/AChgg5MPz5OEJgBMnUQx01Pwf4wJjGcbXZH4SfWYCI7rIwSgnc1LkTNiTrBIkFoqiIHCugPMTm4Aehqjdqql5rqAhs5AioI3kgV6D6RGgMqI5HHifs8EWDg2p4fGI8SJKt+ULl4Zl67Y56vX7vc045ddXrTj9rzJrH8b09RtssPzgoQJgMD5c+cs4bzsvH0VsGC96hSatBDGCwTUBB2GxBZeRgc71aU/XqtMplslQtwUm/lnLAX0JghErG5EpQyyT3FJUGafch3bsBdXhIq8JiZRaURNmw4XTHVrLp4HjRIBW1kvlQbFIlE/Si0IPbDSWpapfAeffngH6IEMMuQCj5nziFdH/Cs2wKDjypKC3C3es+g+RdpU3CovsHsRalzbV0obDunGVHiTqkb5HK6z4VuB44wVpxomwnE1heZqwZJlvy5dI9tWbr5slGfeUJR528+W2XX74Q39tXCHyiDWH24fnTQ3354+9+ydDDD1++yLOeDUmYgd0GNmiLaKJY6gSxqs5MUX8LNPGAJET7Kuqum8RaFaU8DSqhgTpIMTxwnggPiuZAoXxLnJ1tHGZWo74YbFuRSgtJGuncD8TESeKwRBV1D1JHnCvdhTXCEZp6bLsKb4i1jbJKZh9RUZ9JEup6QWlKyhqATnmjZqScQypNcjAy45OTlCBNHlGLqz6EozSfzSm/4asEdUMkSR2lXG9KWc5ooKyNrci6O3GyNzfq/iPHLjlq+B1XX72gcu6HxX9QSELc14obvv+0n33/m5fZ9erpBdvKl7MeST3y8hH1vKPqyMGcmSKq+Uq5qPr7+1WTOt4KCPEKQIrTRi9wMATgRIlCkqgonWmhX0YYxH5iTzQT1YyVHSSWFUEoAbuOFbt2YgFz7uLBQWUnEVyQ1GzMSlTGSuBM1UVzdpDakKQEdgGNKP6M3S6tNtCTKWRIbUtRLErtGtJtr2HrpnE+3RmYlGDNJSr1fbBhm7r7E5rvgAQKaibVKBbyBEK4SzklEFypcWBbbs1y3PHYtoejxHokiJI7/DB6oBZ7G556xNPHz/n85xfie/sBfHLIgwaE0w/fOfiRc9//iaf0FV9X8tzF/syUyjouqVLwkJbLfWpyakqNj42ogb5+VSzkuE4O7nUNQlYbGYROSpFvUZih2vTVyMQkFZBWFg1Ort80tKk0OHh339JjHnbczLDjWDWkngRBM1ev1RbXp2uLW416MYqjrGfb+ZybqWQzXiWXyQw4jlNUVpKxktgrFlzXtkLXsmzXsS3PsW3Xtm2Piskt28aGYaaRdVQ1aGp88lbquCCeaVvRf2ccl6skoCaCrxWbCNizqV2AUs06enVory74WzR/KqXIuQ5JPSIwJnMRolw1ojhuhGFYi5J4OkjUlnyxuMrN5lfONJobq1X/0cqhfWPLr75+QertR+CZhz5oQJgkif2xN736tYs86xPB5PgzBktFVZ+eIucAFiE6zU5MTqrJiQk10FdReRAcUSkPhBQcIrAJOWBA3kztoRweGSGa+MlqQw0efriabvijse3ce9Sxx37lne/8x5vVCQNVpY4LLKtdCIdrUatWuWow9FY/tC43NjKRHVq33nlk/QZv+5ahxWMjUwN+s744ilqLKyV7kWsFFcu2K7Zllz3H6bMcu2wpq2BZVrZcKMJz5DL1MBea4/hJElOuSy7r2nYSEVtuksBVY9t4ToCYJLKr1TqCGGl8L40DkqPJUVELxbFEfZ/k8vnQ87wgsSmiEEZJFCZJEtqe42cy2YbtOLU4jnc0fX9TM/A3tFrh5lqrucoploaPeOox0+de+rtTrf4k4WefnOagASHu5oefX37CIyvu+UxcnT79yMWLc+PDO3ihqYS8dxNTE6pWrar+ckllM7pbruVp2vtOEMroxLajwE/rFUtqeGJ6sv/Qw29vRPG3zr/4i/9pLV36hHf7ZMUKb4fnZR5bd18uVHWnuaPhTdbG3LGx4ezI6GRhZnJqoOk3+zdv2nScUirv2Y5nO45jO5ZtW3bGtuysreKs40RF10oy0KAt1DXFtou8BBUrN7FjO+vlPO7n4louagod1/LQLcp2EpU4cV//QMCtJOIwiqJGnETTaDYUx0kjVEk1isOpIAhrfqs1adlqR/+ivo2LjlwyevzAs5uZU2v+aactn7fVC/sEQfvgIAcVCLf99teHfO6Cj/7zoeXCm8qOe4hfq5LKBW9gxsuq8ckJ1fKbqq9UVAhSUy0cBaU52C6qqIwLOXOUpZqRUpnKosZEo/VQI7a+fulV//btvQHgnow76B/VPfe4mw9tubnHYne4utWbrDfdmVrDCao1e82j9yEryLbjhqN82w5i3/GDwE6ixI2tyGtO17zQsiEeLS8j1X+ugvwPlKfiFty3Vuh6bivj5ZulYr5RqpTDvsWDocploqcctiTqO6TSOvFPzwYny+PzeOzJzS18d5+MwEEFwiRJ3Ate/6q/LFjxRW7Yeia8m+BTl7ZeYxPj1A8QIES3IrA3i3u/G4QAIGA5Xq2qYv9iVYst0ONd+/FPf+YrS056/gFr/rFPZm3hIL9TI3BQgRAj+9PLlh937603f7ZsW6fbShWwd1OJUhyr0fExBVWsUiyoMAhUDn0OqOUXS0H2TmpWbWSiWLbKlfvVtonpSd/O/c8fnH76J89657mrfqdmcOFm5vwIHHQgnLj3V/1XXvDJDxRs9VbPtpainz0KYv0gUqOjw6qQy6pSqaD8ZlPlM7AHeQ56gTAAQDP5aKoVPRS6pSsvvPiK71nHHntQ9SGY8yto4Qb2egQOOhDijj71+pe/PKzVL6zkvJPjMPTQh8BvttTE2CjFu8qlgkIHXPQokIJc8YoKzQKkYGi5yne8rTtmatef/ZZ/uOSPXvP6J60F8l7PzMIB5s0IHJQgfPAn3zvy29/80gX9Oe9MK2wN9BULyq81VB32Xb6gPNujlLZMxlWBaqkoDtVgpV+Nj4ypUq6kWlGsWparGpbdDHOFO/JLlnzq3Mu+/ssFx8S8Wddz6kYPShAmK1dmLrzio2dZfvUi1Wgc31/MqaDeVEGjqXKZPFGqh61IOR7UTS7RqeTLqlGtq6yTV3X0LcgWVd1xh4b98DuvftNrP/+iM9+6dU7NzMLFzpsROChBiNH/xoXnHL/2ofuvyCbxS0oZN2uBRiIIVcbNcrfeFpI6E+UWbKqXy1geVyAlrqo1A5WrDNQnw2CF73mfvODa6yEFfyco0+fNypxHN3rQgnDF9d9dfO1Xr/hIfz73d3nHPiSDhpvobYgyJXC6BKiNi5ST4z6DsR8rz8moJEZwPlFeobxluFa77jl//qefe805yzfPozlduNU5NgIHLQiR2vWR173kzJxtXehG0Ul521JZVBGgxwKStgHEJFSIWrsZRwV1NAp1FLUac/NxXVl3TUbh8k998spfWSedhNZDC4+FETgoR+CgBSGppJe875jNq9dcHDVqr8o7Trno2CoCZ0oUKtd2iHgodJgDJQhChTZj6HzrZIpjY37j+0ce/YxPv+WyLw0dlCO/cFELI6BH4KAG4epbflr+wTXffJ0/M3VeybKOLniuiqpVKvjNZ7Iqin2qIkf9nOfmVITmJPCcWt6q6SC68Ox3v+VnJ522bN7Rqi+s7rk1Agc1CDGUn3zX3z6vNj56acmyXlRybS+ozijQ5pfyAF2gLNemzj7FQkVFVkaFsVWrBurmmUR97OLrbrhvbk3HwtXOxxE46EG4+c6bBs8/78MffNrSw97oBM3DiijUS0Lloq97q6GK5aJqhqFq+pHKl/rVRK25PXAy33jmqS+4atkHly/kiM7HVT3H7vmgByHG8/Jz3/HCrWseuSyrwucetXggO7Z1szrikENUo1lTtmurAC2gLVe1Ekcl2eLqzWPTF7/hXef+6NQzFhjA5th6nJeXOydA+OBNPz30yosv/OixS5f8dS5qHW75dVVwbYXKHtiDPrr+5ipqpFoNC4OH/t9jOyY/dNV//eqeeTmjCzc950ZgToAQo3rhO//uz9TM+EVeq/b8vpzntKYnVVZTOaD/XaYyoMaqjcnIy3+nsvToT73/iqu3zbnZWLjgeTkCcwaEq37+o8O/ctWlHz56cf/ZcX3m8ArIgaszqpQvEUO3W+pXDcsZ2j7TuPLsZf/vqy94wxum5+WMLtz0nBuBOQNCjOwV7/nbv5jcuvHiiuucXPZsN/SbKuNkVM33lcqVlMoXV26tNs//l+tu/PGcm4mFC563IzCnQLjmhmuf8o1/veoTh/WVzrBajUO9JFFo19yKlYozhUZDObdm+w55/3u//O2H5u2MLtz4nBuBOQXCJPmVe8U/fPH0qW1bzxssZk5tTE/lStm8sl1PhU5ubLTRvP5pz3vueX/30SsW7ME5txTn7wXPKRBimkAG9bH3v+s9Jx731L+f2rH96KX9fURkW4+trdun6te+6Zz3ffqkly1boGmfv2t6zt35nAMhRvibl3zguffcducFxxw6+GJVne5Pojj2bWtjLXQufdt7zr/m2NNOW6CwmHNLcf5e8JwE4cjqW8pXXvLpZdkoPMdr1Y+zlRXVg3hldnDgIx/52k9unr/TuXDnc3EE5iQIMdC/+vYXj/v+td9491GL+s6qFPLeyHTjpuNOeeYFbzz/Cxvm4kQsXPP8HYE5C0I4af7lH//tj6s7tpw7WKkcNl5r/Psr/ursr/7hsrct2IPzdz3PyTufsyDEaD+y4vrF13zuC28I641TQ9u79rKLrvrlQgHvnFyH8/qi5zQIMXM/+PTHnnHT/974J5ly36+/8KNfrJ7Xs7lw83NyBOY8CDffeefgJZ/++NH5YmHzZ7/94+E5OQsLFz2vR2DOgxCzt+L66wsLZUvzeh3P6Zv/nQDhnJ6BhYuf9yOwAMJ5vwQWBuBAj8ACCA/0DCycf96PwAII5/0SWBiAAz0CCyA80DOwcP55PwILIJz3S2BhAA70CCyA8EDPwML55/0ILIBw3i+BhQE40CPw/wGEbwHMGCppUgAAAABJRU5ErkJggg==;" vertex="1" parent="8962rQQDY3VNNf6We3Pp-1">
          <mxGeometry x="20" y="120" width="90" height="90" as="geometry" />
        </mxCell>
        <mxCell id="w6fQHkmV2pakwZ9QLm7J-5" value="Nos Clubs" style="text;html=1;strokeColor=none;fillColor=none;align=center;verticalAlign=middle;whiteSpace=wrap;rounded=0;fontSize=18;fontColor=#0066CC;" vertex="1" parent="8962rQQDY3VNNf6We3Pp-1">
          <mxGeometry x="440" y="140" width="100" height="20" as="geometry" />
        </mxCell>
        <mxCell id="w6fQHkmV2pakwZ9QLm7J-6" value="Abonnement" style="text;html=1;strokeColor=none;fillColor=none;align=center;verticalAlign=middle;whiteSpace=wrap;rounded=0;fontSize=18;fontColor=#0066CC;" vertex="1" parent="8962rQQDY3VNNf6We3Pp-1">
          <mxGeometry x="580" y="140" width="70" height="20" as="geometry" />
        </mxCell>
        <mxCell id="w6fQHkmV2pakwZ9QLm7J-7" value="Blog" style="text;html=1;strokeColor=none;fillColor=none;align=center;verticalAlign=middle;whiteSpace=wrap;rounded=0;fontSize=18;fontColor=#0066CC;" vertex="1" parent="8962rQQDY3VNNf6We3Pp-1">
          <mxGeometry x="830" y="140" width="70" height="20" as="geometry" />
        </mxCell>
        <mxCell id="w6fQHkmV2pakwZ9QLm7J-8" value="Cours collectifs" style="text;html=1;strokeColor=none;fillColor=none;align=center;verticalAlign=middle;whiteSpace=wrap;rounded=0;fontSize=18;fontColor=#0066CC;" vertex="1" parent="8962rQQDY3VNNf6We3Pp-1">
          <mxGeometry x="690" y="140" width="130" height="20" as="geometry" />
        </mxCell>
        <mxCell id="w6fQHkmV2pakwZ9QLm7J-10" value="Connection" style="text;html=1;strokeColor=none;fillColor=none;align=center;verticalAlign=middle;whiteSpace=wrap;rounded=0;fontSize=14;fontColor=#0066CC;" vertex="1" parent="8962rQQDY3VNNf6We3Pp-1">
          <mxGeometry x="940" y="133.5" width="70" height="20" as="geometry" />
        </mxCell>
        <mxCell id="w6fQHkmV2pakwZ9QLm7J-13" value="" style="endArrow=none;html=1;rounded=0;" edge="1" parent="8962rQQDY3VNNf6We3Pp-1">
          <mxGeometry width="50" height="50" relative="1" as="geometry">
            <mxPoint x="550" y="165" as="sourcePoint" />
            <mxPoint x="550" y="135" as="targetPoint" />
          </mxGeometry>
        </mxCell>
        <mxCell id="w6fQHkmV2pakwZ9QLm7J-14" value="" style="endArrow=none;html=1;rounded=0;" edge="1" parent="8962rQQDY3VNNf6We3Pp-1">
          <mxGeometry width="50" height="50" relative="1" as="geometry">
            <mxPoint x="824.71" y="165" as="sourcePoint" />
            <mxPoint x="824.71" y="135" as="targetPoint" />
          </mxGeometry>
        </mxCell>
        <mxCell id="w6fQHkmV2pakwZ9QLm7J-15" value="" style="endArrow=none;html=1;rounded=0;" edge="1" parent="8962rQQDY3VNNf6We3Pp-1">
          <mxGeometry width="50" height="50" relative="1" as="geometry">
            <mxPoint x="680" y="165" as="sourcePoint" />
            <mxPoint x="680" y="135" as="targetPoint" />
          </mxGeometry>
        </mxCell>
        <mxCell id="w6fQHkmV2pakwZ9QLm7J-18" value="" style="endArrow=none;html=1;rounded=0;entryX=0;entryY=1;entryDx=0;entryDy=0;exitX=1;exitY=1;exitDx=0;exitDy=0;" edge="1" parent="8962rQQDY3VNNf6We3Pp-1">
          <mxGeometry width="50" height="50" relative="1" as="geometry">
            <mxPoint x="1159.9999999999995" y="570.0000000000002" as="sourcePoint" />
            <mxPoint x="-9.999999999999773" y="570.0000000000002" as="targetPoint" />
          </mxGeometry>
        </mxCell>
        <mxCell id="w6fQHkmV2pakwZ9QLm7J-17" value="" style="endArrow=none;html=1;rounded=0;exitX=0.001;exitY=0.169;exitDx=0;exitDy=0;exitPerimeter=0;entryX=1;entryY=0.167;entryDx=0;entryDy=0;entryPerimeter=0;" edge="1" parent="8962rQQDY3VNNf6We3Pp-1">
          <mxGeometry width="50" height="50" relative="1" as="geometry">
            <mxPoint x="-9.419999999999927" y="209.38000000000022" as="sourcePoint" />
            <mxPoint x="1159.41" y="208.46000000000015" as="targetPoint" />
          </mxGeometry>
        </mxCell>
        <mxCell id="w6fQHkmV2pakwZ9QLm7J-20" value="" style="sketch=0;outlineConnect=0;fontColor=#232F3E;gradientColor=none;fillColor=#ED7100;strokeColor=none;dashed=0;verticalLabelPosition=bottom;verticalAlign=top;align=center;html=1;fontSize=12;fontStyle=0;aspect=fixed;pointerEvents=1;shape=mxgraph.aws4.container_registry_image;" vertex="1" parent="8962rQQDY3VNNf6We3Pp-1">
          <mxGeometry x="700" y="320" width="110" height="110" as="geometry" />
        </mxCell>
        <mxCell id="w6fQHkmV2pakwZ9QLm7J-21" value="FORGEZ VOTRE FORCE, DEPASSEZ VOS LIMITES" style="text;html=1;align=center;verticalAlign=middle;whiteSpace=wrap;rounded=0;fontSize=40;" vertex="1" parent="8962rQQDY3VNNf6We3Pp-1">
          <mxGeometry x="80" y="300" width="460" height="180" as="geometry" />
        </mxCell>
        <mxCell id="w6fQHkmV2pakwZ9QLm7J-22" value="" style="rounded=0;whiteSpace=wrap;html=1;" vertex="1" parent="8962rQQDY3VNNf6We3Pp-1">
          <mxGeometry x="100" y="680" width="370" height="400" as="geometry" />
        </mxCell>
        <mxCell id="w6fQHkmV2pakwZ9QLm7J-23" value="" style="sketch=0;outlineConnect=0;fontColor=#232F3E;gradientColor=none;fillColor=#ED7100;strokeColor=none;dashed=0;verticalLabelPosition=bottom;verticalAlign=top;align=center;html=1;fontSize=12;fontStyle=0;aspect=fixed;pointerEvents=1;shape=mxgraph.aws4.container_registry_image;" vertex="1" parent="8962rQQDY3VNNf6We3Pp-1">
          <mxGeometry x="260" y="850" width="48" height="48" as="geometry" />
        </mxCell>
        <mxCell id="w6fQHkmV2pakwZ9QLm7J-24" value="Arm Strong c&#39;est quoi ?&amp;nbsp;" style="text;html=1;align=center;verticalAlign=middle;whiteSpace=wrap;rounded=0;fontSize=24;" vertex="1" parent="8962rQQDY3VNNf6We3Pp-1">
          <mxGeometry x="745" y="700" width="280" height="30" as="geometry" />
        </mxCell>
        <mxCell id="w6fQHkmV2pakwZ9QLm7J-25" value="" style="endArrow=none;html=1;rounded=0;entryX=0;entryY=1;entryDx=0;entryDy=0;exitX=1;exitY=1;exitDx=0;exitDy=0;" edge="1" parent="8962rQQDY3VNNf6We3Pp-1">
          <mxGeometry width="50" height="50" relative="1" as="geometry">
            <mxPoint x="1159.9999999999995" y="1130.0000000000002" as="sourcePoint" />
            <mxPoint x="-9.999999999999773" y="1130.0000000000002" as="targetPoint" />
          </mxGeometry>
        </mxCell>
        <mxCell id="w6fQHkmV2pakwZ9QLm7J-26" value="" style="rounded=1;whiteSpace=wrap;html=1;" vertex="1" parent="8962rQQDY3VNNf6We3Pp-1">
          <mxGeometry x="189" y="1300" width="771" height="30" as="geometry" />
        </mxCell>
        <mxCell id="w6fQHkmV2pakwZ9QLm7J-27" value="FAQ" style="text;html=1;align=center;verticalAlign=middle;whiteSpace=wrap;rounded=0;fontSize=44;" vertex="1" parent="8962rQQDY3VNNf6We3Pp-1">
          <mxGeometry x="540" y="1190" width="105" height="50" as="geometry" />
        </mxCell>
        <mxCell id="w6fQHkmV2pakwZ9QLm7J-28" value="" style="html=1;verticalLabelPosition=bottom;labelBackgroundColor=#ffffff;verticalAlign=top;shadow=0;dashed=0;strokeWidth=2;shape=mxgraph.ios7.misc.down;strokeColor=#0080f0;" vertex="1" parent="8962rQQDY3VNNf6We3Pp-1">
          <mxGeometry x="210" y="1312" width="12" height="6" as="geometry" />
        </mxCell>
        <mxCell id="w6fQHkmV2pakwZ9QLm7J-29" value="" style="rounded=1;whiteSpace=wrap;html=1;" vertex="1" parent="8962rQQDY3VNNf6We3Pp-1">
          <mxGeometry x="189.5" y="1350" width="771" height="30" as="geometry" />
        </mxCell>
        <mxCell id="w6fQHkmV2pakwZ9QLm7J-30" value="" style="rounded=1;whiteSpace=wrap;html=1;" vertex="1" parent="8962rQQDY3VNNf6We3Pp-1">
          <mxGeometry x="189" y="1400" width="771" height="30" as="geometry" />
        </mxCell>
        <mxCell id="w6fQHkmV2pakwZ9QLm7J-31" value="" style="rounded=1;whiteSpace=wrap;html=1;" vertex="1" parent="8962rQQDY3VNNf6We3Pp-1">
          <mxGeometry x="189" y="1450" width="771" height="30" as="geometry" />
        </mxCell>
        <mxCell id="w6fQHkmV2pakwZ9QLm7J-32" value="" style="rounded=1;whiteSpace=wrap;html=1;" vertex="1" parent="8962rQQDY3VNNf6We3Pp-1">
          <mxGeometry x="189" y="1500" width="771" height="30" as="geometry" />
        </mxCell>
        <mxCell id="w6fQHkmV2pakwZ9QLm7J-33" value="" style="html=1;verticalLabelPosition=bottom;labelBackgroundColor=#ffffff;verticalAlign=top;shadow=0;dashed=0;strokeWidth=2;shape=mxgraph.ios7.misc.down;strokeColor=#0080f0;" vertex="1" parent="8962rQQDY3VNNf6We3Pp-1">
          <mxGeometry x="210" y="1362" width="12" height="6" as="geometry" />
        </mxCell>
        <mxCell id="w6fQHkmV2pakwZ9QLm7J-34" value="" style="html=1;verticalLabelPosition=bottom;labelBackgroundColor=#ffffff;verticalAlign=top;shadow=0;dashed=0;strokeWidth=2;shape=mxgraph.ios7.misc.down;strokeColor=#0080f0;" vertex="1" parent="8962rQQDY3VNNf6We3Pp-1">
          <mxGeometry x="210" y="1412" width="12" height="6" as="geometry" />
        </mxCell>
        <mxCell id="w6fQHkmV2pakwZ9QLm7J-35" value="" style="html=1;verticalLabelPosition=bottom;labelBackgroundColor=#ffffff;verticalAlign=top;shadow=0;dashed=0;strokeWidth=2;shape=mxgraph.ios7.misc.down;strokeColor=#0080f0;" vertex="1" parent="8962rQQDY3VNNf6We3Pp-1">
          <mxGeometry x="210" y="1462" width="12" height="6" as="geometry" />
        </mxCell>
        <mxCell id="w6fQHkmV2pakwZ9QLm7J-36" value="" style="html=1;verticalLabelPosition=bottom;labelBackgroundColor=#ffffff;verticalAlign=top;shadow=0;dashed=0;strokeWidth=2;shape=mxgraph.ios7.misc.down;strokeColor=#0080f0;" vertex="1" parent="8962rQQDY3VNNf6We3Pp-1">
          <mxGeometry x="210" y="1512" width="12" height="6" as="geometry" />
        </mxCell>
        <mxCell id="w6fQHkmV2pakwZ9QLm7J-37" value="&lt;ol style=&quot;margin: calc(var(--ds-md-zoom)*12px)0; padding-left: calc(var(--ds-md-zoom)*24px); font-family: Inter, system-ui, -apple-system, BlinkMacSystemFont, &amp;quot;Segoe UI&amp;quot;, Roboto, &amp;quot;Noto Sans&amp;quot;, Ubuntu, Cantarell, &amp;quot;Helvetica Neue&amp;quot;, Oxygen, &amp;quot;Open Sans&amp;quot;, sans-serif; font-size: 16.002px; text-align: start;&quot; start=&quot;1&quot;&gt;&lt;li&gt;&lt;p style=&quot;margin-top: 0px; margin-right: 0px; margin-bottom: 0px !important; margin-left: 0px; font-size: var(--ds-md-font-size); line-height: var(--ds-md-line-height);&quot;&gt;&lt;strong&gt;Quels sont les horaires d&#39;ouverture de la salle ?&lt;/strong&gt;&lt;/p&gt;&lt;/li&gt;&lt;/ol&gt;" style="text;html=1;align=center;verticalAlign=middle;whiteSpace=wrap;rounded=0;fontColor=#3A3A3A;labelBackgroundColor=none;" vertex="1" parent="8962rQQDY3VNNf6We3Pp-1">
          <mxGeometry x="230" y="1300" width="390" height="30" as="geometry" />
        </mxCell>
        <mxCell id="w6fQHkmV2pakwZ9QLm7J-38" value="&lt;ol start=&quot;1&quot; style=&quot;margin: calc(var(--ds-md-zoom)*12px)0; padding-left: calc(var(--ds-md-zoom)*24px); font-family: Inter, system-ui, -apple-system, BlinkMacSystemFont, &amp;quot;Segoe UI&amp;quot;, Roboto, &amp;quot;Noto Sans&amp;quot;, Ubuntu, Cantarell, &amp;quot;Helvetica Neue&amp;quot;, Oxygen, &amp;quot;Open Sans&amp;quot;, sans-serif; font-size: 16.002px;&quot;&gt;&lt;li&gt;&lt;ol start=&quot;1&quot; style=&quot;margin: calc(var(--ds-md-zoom)*12px)0; padding-left: calc(var(--ds-md-zoom)*24px);&quot;&gt;&lt;li style=&quot;margin-top: 4px;&quot;&gt;&lt;p style=&quot;margin-top: 0px; margin-right: 0px; margin-bottom: 0px !important; margin-left: 0px; font-size: var(--ds-md-font-size); line-height: var(--ds-md-line-height);&quot;&gt;&lt;strong&gt;La salle est-elle ouverte les jours fériés ?&lt;/strong&gt;&lt;/p&gt;&lt;/li&gt;&lt;/ol&gt;&lt;/li&gt;&lt;/ol&gt;" style="text;html=1;align=left;verticalAlign=middle;whiteSpace=wrap;rounded=0;fontColor=#3A3A3A;labelBackgroundColor=none;" vertex="1" parent="8962rQQDY3VNNf6We3Pp-1">
          <mxGeometry x="240" y="1350" width="390" height="30" as="geometry" />
        </mxCell>
        <mxCell id="w6fQHkmV2pakwZ9QLm7J-39" value="&lt;ol style=&quot;margin: calc(var(--ds-md-zoom)*12px)0; padding-left: calc(var(--ds-md-zoom)*24px); font-family: Inter, system-ui, -apple-system, BlinkMacSystemFont, &amp;quot;Segoe UI&amp;quot;, Roboto, &amp;quot;Noto Sans&amp;quot;, Ubuntu, Cantarell, &amp;quot;Helvetica Neue&amp;quot;, Oxygen, &amp;quot;Open Sans&amp;quot;, sans-serif; font-size: 16.002px; text-align: start;&quot; start=&quot;1&quot;&gt;&lt;li style=&quot;margin-top: 4px;&quot;&gt;&lt;p style=&quot;margin-top: 0px; margin-right: 0px; margin-bottom: 0px !important; margin-left: 0px; font-size: var(--ds-md-font-size); line-height: var(--ds-md-line-height);&quot;&gt;&lt;strong&gt;Proposez-vous des essais gratuits ?&lt;/strong&gt;&lt;/p&gt;&lt;/li&gt;&lt;/ol&gt;" style="text;html=1;align=center;verticalAlign=middle;whiteSpace=wrap;rounded=0;fontColor=default;labelBackgroundColor=default;" vertex="1" parent="8962rQQDY3VNNf6We3Pp-1">
          <mxGeometry x="222" y="1400" width="300" height="30" as="geometry" />
        </mxCell>
        <mxCell id="w6fQHkmV2pakwZ9QLm7J-40" value="&lt;ol style=&quot;margin: calc(var(--ds-md-zoom)*12px)0; padding-left: calc(var(--ds-md-zoom)*24px); font-family: Inter, system-ui, -apple-system, BlinkMacSystemFont, &amp;quot;Segoe UI&amp;quot;, Roboto, &amp;quot;Noto Sans&amp;quot;, Ubuntu, Cantarell, &amp;quot;Helvetica Neue&amp;quot;, Oxygen, &amp;quot;Open Sans&amp;quot;, sans-serif; font-size: 16.002px; text-align: start;&quot; start=&quot;1&quot;&gt;&lt;li style=&quot;margin-top: 4px;&quot;&gt;&lt;p style=&quot;margin-top: 0px; margin-right: 0px; margin-bottom: 0px !important; margin-left: 0px; font-size: var(--ds-md-font-size); line-height: var(--ds-md-line-height);&quot;&gt;&lt;strong&gt;Proposez-vous des essais gratuits ?&lt;/strong&gt;&lt;/p&gt;&lt;/li&gt;&lt;/ol&gt;" style="text;html=1;align=center;verticalAlign=middle;whiteSpace=wrap;rounded=0;fontColor=default;labelBackgroundColor=default;" vertex="1" parent="8962rQQDY3VNNf6We3Pp-1">
          <mxGeometry x="222" y="1450" width="300" height="30" as="geometry" />
        </mxCell>
        <mxCell id="w6fQHkmV2pakwZ9QLm7J-41" value="&lt;ol style=&quot;margin: calc(var(--ds-md-zoom)*12px)0; padding-left: calc(var(--ds-md-zoom)*24px); font-family: Inter, system-ui, -apple-system, BlinkMacSystemFont, &amp;quot;Segoe UI&amp;quot;, Roboto, &amp;quot;Noto Sans&amp;quot;, Ubuntu, Cantarell, &amp;quot;Helvetica Neue&amp;quot;, Oxygen, &amp;quot;Open Sans&amp;quot;, sans-serif; font-size: 16.002px; text-align: start;&quot; start=&quot;1&quot;&gt;&lt;li style=&quot;margin-top: 4px;&quot;&gt;&lt;p style=&quot;margin-top: 0px; margin-right: 0px; margin-bottom: 0px !important; margin-left: 0px; font-size: var(--ds-md-font-size); line-height: var(--ds-md-line-height);&quot;&gt;&lt;strong&gt;Proposez-vous des essais gratuits ?&lt;/strong&gt;&lt;/p&gt;&lt;/li&gt;&lt;/ol&gt;" style="text;html=1;align=center;verticalAlign=middle;whiteSpace=wrap;rounded=0;fontColor=default;labelBackgroundColor=default;" vertex="1" parent="8962rQQDY3VNNf6We3Pp-1">
          <mxGeometry x="230" y="1500" width="300" height="30" as="geometry" />
        </mxCell>
        <mxCell id="8962rQQDY3VNNf6We3Pp-35" value="" style="verticalLabelPosition=bottom;shadow=0;dashed=0;align=center;html=1;verticalAlign=top;strokeWidth=1;shape=mxgraph.mockup.markup.line;strokeColor=#999999;fillColor=#008CFF;fontSize=13;fontColor=#0066CC;" parent="1" vertex="1">
          <mxGeometry x="2250" y="1360" width="1150" height="20" as="geometry" />
        </mxCell>
        <mxCell id="w6fQHkmV2pakwZ9QLm7J-42" value="" style="endArrow=none;html=1;rounded=0;entryX=0;entryY=1;entryDx=0;entryDy=0;exitX=1;exitY=1;exitDx=0;exitDy=0;" edge="1" parent="1">
          <mxGeometry width="50" height="50" relative="1" as="geometry">
            <mxPoint x="1169.4999999999995" y="1630.0000000000002" as="sourcePoint" />
            <mxPoint x="-0.4999999999997726" y="1630.0000000000002" as="targetPoint" />
          </mxGeometry>
        </mxCell>
        <mxCell id="w6fQHkmV2pakwZ9QLm7J-43" value="" style="rounded=0;whiteSpace=wrap;html=1;" vertex="1" parent="1">
          <mxGeometry x="110" y="1800" width="250" height="320" as="geometry" />
        </mxCell>
        <mxCell id="w6fQHkmV2pakwZ9QLm7J-44" value="" style="rounded=0;whiteSpace=wrap;html=1;" vertex="1" parent="1">
          <mxGeometry x="490" y="1800" width="250" height="320" as="geometry" />
        </mxCell>
        <mxCell id="w6fQHkmV2pakwZ9QLm7J-45" value="" style="rounded=0;whiteSpace=wrap;html=1;" vertex="1" parent="1">
          <mxGeometry x="870" y="1800" width="250" height="320" as="geometry" />
        </mxCell>
        <mxCell id="w6fQHkmV2pakwZ9QLm7J-46" value="&lt;h1 style=&quot;margin-top: 0px;&quot;&gt;Heading&lt;/h1&gt;&lt;p&gt;Lorem ipsum dolor sit amet, consectetur adipisicing elit, sed do eiusmod tempor incididunt ut labore et dolore magna aliqua.&lt;/p&gt;" style="text;html=1;whiteSpace=wrap;overflow=hidden;rounded=0;" vertex="1" parent="1">
          <mxGeometry x="120" y="2140" width="180" height="120" as="geometry" />
        </mxCell>
        <mxCell id="w6fQHkmV2pakwZ9QLm7J-47" value="&lt;h1 style=&quot;margin-top: 0px;&quot;&gt;Heading&lt;/h1&gt;&lt;p&gt;Lorem ipsum dolor sit amet, consectetur adipisicing elit, sed do eiusmod tempor incididunt ut labore et dolore magna aliqua.&lt;/p&gt;" style="text;html=1;whiteSpace=wrap;overflow=hidden;rounded=0;" vertex="1" parent="1">
          <mxGeometry x="890" y="2140" width="180" height="120" as="geometry" />
        </mxCell>
        <mxCell id="w6fQHkmV2pakwZ9QLm7J-48" value="&lt;h1 style=&quot;margin-top: 0px;&quot;&gt;Heading&lt;/h1&gt;&lt;p&gt;Lorem ipsum dolor sit amet, consectetur adipisicing elit, sed do eiusmod tempor incididunt ut labore et dolore magna aliqua.&lt;/p&gt;" style="text;html=1;whiteSpace=wrap;overflow=hidden;rounded=0;" vertex="1" parent="1">
          <mxGeometry x="495" y="2150" width="180" height="120" as="geometry" />
        </mxCell>
        <mxCell id="w6fQHkmV2pakwZ9QLm7J-49" value="Pourquoi Arm Strong ?&amp;nbsp;" style="text;html=1;align=center;verticalAlign=middle;whiteSpace=wrap;rounded=0;fontSize=35;" vertex="1" parent="1">
          <mxGeometry x="396" y="1690" width="378" height="30" as="geometry" />
        </mxCell>
        <mxCell id="w6fQHkmV2pakwZ9QLm7J-50" value="" style="endArrow=none;html=1;rounded=0;entryX=0;entryY=1;entryDx=0;entryDy=0;exitX=1;exitY=1;exitDx=0;exitDy=0;" edge="1" parent="1">
          <mxGeometry width="50" height="50" relative="1" as="geometry">
            <mxPoint x="1169.9999999999995" y="2338" as="sourcePoint" />
            <mxPoint x="2.2737367544323206e-13" y="2338" as="targetPoint" />
          </mxGeometry>
        </mxCell>
      </root>
    </mxGraphModel>
  </diagram>
</mxfile>
